<?xml version="1.0" encoding="utf-8"?>
<!-- Generator: Adobe Illustrator 27.8.1, SVG Export Plug-In . SVG Version: 6.00 Build 0)  -->
<svg version="1.1" id="Layer_1" xmlns="http://www.w3.org/2000/svg" xmlns:xlink="http://www.w3.org/1999/xlink" x="0px" y="0px"
	 viewBox="0 0 841.9 595.3" style="enable-background:new 0 0 841.9 595.3;" xml:space="preserve">
<style type="text/css">
	.st0{fill:#78BE46;}
	.st1{clip-path:url(#SVGID_00000173855491470427448140000014355240991652916147_);fill:#101820;}
</style>
<polyline class="st0" points="553.6,130.3 588.9,130.3 550.9,222.6 516.7,222.6 "/>
<polyline class="st0" points="512,130.3 547.2,130.3 510.6,222.6 476.3,222.6 "/>
<polygon class="st0" points="400.1,404 417.9,358 367.1,228.6 328.6,228.6 "/>
<polyline class="st0" points="474.2,228.4 509.4,228.4 440.8,404 406.6,404 "/>
<g>
	<defs>
		<rect id="SVGID_1_" width="841.9" height="595.3"/>
	</defs>
	<clipPath id="SVGID_00000072280505544244542920000004069706764439373196_">
		<use xlink:href="#SVGID_1_"  style="overflow:visible;"/>
	</clipPath>
	<path style="clip-path:url(#SVGID_00000072280505544244542920000004069706764439373196_);fill:#101820;" d="M500.1,352.4
		c4.8,11.2,11.4,21,19.8,29.2c8.4,8.3,18.3,14.8,29.6,19.6c11.3,4.8,23.6,7.2,36.6,7.2c13.1,0,25.3-2.4,36.6-7.2
		c11.3-4.8,21.2-11.3,29.6-19.6c8.4-8.3,15-18,19.8-29.2c4.8-11.2,7.2-23.2,7.2-36.1c0-12.8-2.4-24.8-7.2-35.9
		c-4.8-11.1-11.4-20.8-19.8-29.2c-8.4-8.4-18.3-15-29.6-19.8c-11.3-4.8-23.6-7.2-36.6-7.2c-13.1,0-25.3,2.4-36.6,7.2
		c-11.4,4.8-21.2,11.4-29.6,19.8c-8.4,8.4-15,18.1-19.8,29.2c-4.8,11.1-7.2,23.1-7.2,35.9C492.9,329.1,495.3,341.1,500.1,352.4
		 M532.5,291.7c2.7-7.5,6.5-13.9,11.5-19.2c4.9-5.3,11-9.5,18.1-12.6c7.2-3.1,15.2-4.6,24.1-4.6c8.9,0,16.9,1.5,24.1,4.6
		c7.2,3.1,13.2,7.3,18.1,12.6c4.9,5.3,8.8,11.7,11.5,19.2c2.7,7.5,4.1,15.7,4.1,24.6c0,8.9-1.4,17.1-4.1,24.6
		c-2.7,7.5-6.5,13.9-11.5,19.2c-4.9,5.3-11,9.5-18.1,12.6c-7.2,3.1-15.2,4.6-24.1,4.6c-8.9,0-16.9-1.5-24.1-4.6
		c-7.2-3.1-13.2-7.3-18.1-12.6c-4.9-5.3-8.8-11.7-11.5-19.2c-2.7-7.5-4.1-15.7-4.1-24.6C528.4,307.4,529.7,299.2,532.5,291.7"/>
	<path style="clip-path:url(#SVGID_00000072280505544244542920000004069706764439373196_);fill:#101820;" d="M198.8,301.9
		c0-5.9,1.3-11.9,3.9-17.9c2.6-6,6.2-11.5,10.9-16.5c4.7-4.9,10.4-8.9,17.2-12c6.8-3.1,14.2-4.6,22.4-4.6c8.4,0,15.7,1.3,22,3.9
		c6.3,2.6,11.5,6.2,15.7,10.7c4.2,4.6,7.3,9.9,9.4,16.1c2.1,6.2,3.3,13,3.5,20.4H198.8z M331.2,372.5l-25.2-19.2
		c-6.4,7.9-13.4,14.2-21.1,19.1c-7.6,4.8-16.7,7.2-27,7.2c-7.7,0-15.1-1.2-22.2-3.7c-7.2-2.5-13.5-5.9-18.9-10.4
		c-5.4-4.4-9.8-9.8-13.1-16.1c-3.3-6.3-5-13.3-5-20.9h140.6v-11.8c0-11.3-1.5-22.5-4.6-33.5c-3.1-11-8.1-20.8-15-29.6
		c-6.9-8.8-15.7-15.8-26.5-21.3c-10.7-5.4-23.9-8.1-39.4-8.1c-13.1,0-25.2,2.3-36.3,7c-11.1,4.7-20.7,11.2-28.7,19.4
		c-8,8.3-14.3,18-18.9,29.2c-4.6,11.2-6.8,23.4-6.8,36.5c0,13.1,2.1,25.2,6.3,36.5c4.2,11.2,10.2,21,17.9,29.2
		c7.8,8.3,17.3,14.7,28.5,19.4c11.2,4.7,23.7,7,37.6,7C286.8,408.4,312.7,396.5,331.2,372.5"/>
	<path style="clip-path:url(#SVGID_00000072280505544244542920000004069706764439373196_);fill:#101820;" d="M668.1,448.6v6.1
		c0,1.5-0.3,2.5-0.8,3c-0.5,0.5-1.6,0.7-3.2,0.7v3.7h3.3c3.5,0,5.2-2.1,5.2-6.3V449c0-2,0.8-3.3,2.4-3.7v-3.8
		c-1.6-0.4-2.4-1.6-2.4-3.7v-6.8c0-4.2-1.7-6.3-5.2-6.3h-3.2v3.7h0.5c2.3,0,3.5,1.2,3.5,3.7v6.1c0,2.6,0.9,4.3,2.6,5.2
		C669,444.3,668.1,446,668.1,448.6 M647.1,447.1h7.2l0,1.2c0,2.5-0.4,4-1.2,4.7c-0.8,0.7-2.7,1-5.7,1c-3.1,0-5-0.4-5.8-1.2
		c-0.8-0.8-1.3-2.6-1.3-5.4l0-3.7l0-2.9c0-2.9,0.4-4.7,1.3-5.5c0.8-0.8,2.8-1.2,6-1.2c2.9,0,4.7,0.2,5.4,0.7
		c0.7,0.5,1.1,1.6,1.2,3.5h5.5c0-3.7-0.7-6.1-2.2-7.2c-1.5-1.1-4.8-1.6-9.9-1.6c-3.9,0-6.7,0.4-8.3,1.1c-1.6,0.7-2.8,2.1-3.6,4.1
		c-0.6,1.7-1,5.6-1,11.9c0,4.9,0.8,8.2,2.4,9.8c1.6,1.6,4.9,2.4,9.9,2.4c5.4,0,8.9-0.6,10.5-1.8c1.6-1.2,2.3-3.9,2.3-8l-0.1-5.7
		h-12.6V447.1z M625.1,429.7v16.5l0,3.7l0.1,1.8l0.1,1.8h-0.2l-1.1-2.4l-1.1-2.3c-0.9-1.8-1.6-3.4-2.3-4.7l-7.5-14.5h-9.2v28.7h5.4
		v-16.5l0-3.8l-0.1-1.9l-0.1-1.9h0.2l0.9,2.1l0.9,2.1c0.9,2,1.5,3.3,1.9,4.1l8.2,15.7h9.2v-28.7H625.1z M593.2,458.4h5.4v-28.7h-5.4
		V458.4z M590.2,434.5v-4.9h-22.3v4.9h8.3v23.8h5.4v-23.8H590.2z M548.3,429.7v28.7h18.9v-4.9h-13.4v-23.8H548.3z M537.6,448.9
		c0,2.2-0.4,3.6-1.1,4.2c-0.7,0.6-2.5,0.9-5.4,0.9c-2.8,0-4.6-0.3-5.3-0.9c-0.8-0.6-1.1-1.9-1.1-4v-19.4h-5.4v19.4
		c0,3.9,0.8,6.5,2.3,7.7c1.6,1.2,4.8,1.8,9.8,1.8c4.7,0,7.9-0.6,9.4-1.9c1.5-1.3,2.3-3.9,2.3-7.9v-19.1h-5.4V448.9z M514.5,436.9
		c0-3-0.7-5-2.2-6c-1.5-1-4.4-1.5-8.7-1.5c-4.6,0-7.6,0.6-9.1,1.7c-1.5,1.1-2.3,3.3-2.3,6.7c0,3.3,0.6,5.4,1.9,6.4
		c1.3,1,4.2,1.6,8.7,1.9l3,0.2c1.7,0.1,2.8,0.4,3.3,0.8c0.5,0.5,0.8,1.4,0.8,2.8c0,1.9-0.3,3.1-1,3.6c-0.7,0.5-2.2,0.8-4.7,0.8
		c-3.1,0-5-0.2-5.7-0.7c-0.7-0.4-1.1-1.7-1.1-3.7l0-0.6H492l0,1c0,3.3,0.7,5.5,2.2,6.6c1.5,1.1,4.5,1.6,9,1.6c5,0,8.3-0.6,9.7-1.7
		c1.5-1.1,2.2-3.6,2.2-7.4c0-3.1-0.6-5.1-1.9-6.1c-1.3-1-4-1.6-8.3-1.8c-3.6-0.2-5.7-0.5-6.4-0.8c-0.6-0.4-1-1.5-1-3.3
		c0-1.5,0.4-2.5,1.2-3c0.8-0.5,2.5-0.7,5.1-0.7c2.2,0,3.6,0.2,4.2,0.6c0.6,0.4,0.9,1.4,1.1,3c0,0.1,0,0.3,0,0.6h5.3V436.9z
		 M482.5,429.7v16.5l0,3.7l0.1,1.8l0.1,1.8h-0.2l-1.1-2.4l-1.1-2.3c-0.9-1.8-1.6-3.4-2.3-4.7l-7.5-14.5h-9.2v28.7h5.4v-16.5l0-3.8
		l-0.1-1.9l-0.1-1.9h0.2l0.9,2.1l0.9,2.1c0.9,2,1.5,3.3,1.9,4.1l8.2,15.7h9.2v-28.7H482.5z M451,435.4c0.6,0.9,1,3.7,1,8.5
		c0,4.8-0.3,7.7-1,8.6c-0.7,0.9-2.7,1.4-6.1,1.4c-3.5,0-5.7-0.4-6.4-1.3c-0.7-0.8-1.1-3.3-1.1-7.4c0-5.6,0.3-8.8,0.9-9.8
		c0.6-0.9,2.8-1.4,6.4-1.4C448.2,434.1,450.3,434.5,451,435.4 M434.1,432c-1.5,1.8-2.2,6-2.2,12.9c0,5.7,0.8,9.5,2.3,11.1
		c1.5,1.7,4.9,2.5,10.1,2.5c5.8,0,9.4-0.9,10.9-2.6c1.5-1.7,2.3-5.8,2.3-12.4c0-6-0.8-9.9-2.2-11.6c-1.5-1.7-4.9-2.6-10.1-2.6
		C439.3,429.4,435.6,430.3,434.1,432 M424.2,449.4c0,1.9-0.4,3.1-1.2,3.7c-0.8,0.6-2.6,0.8-5.3,0.8c-3.3,0-5.3-0.5-5.9-1.5
		c-0.6-1-0.9-4.3-0.9-9.8c0-4.1,0.3-6.5,1-7.4c0.7-0.8,2.7-1.2,6.1-1.2c2.5,0,4.1,0.3,4.8,0.8c0.7,0.5,1.1,1.7,1.1,3.6v0.7h5.5
		l0-0.7c0-3.6-0.7-6.1-2.1-7.3c-1.4-1.2-4.1-1.8-8.2-1.8c-5.6,0-9.3,0.7-11.1,2.2c-1.8,1.5-2.6,4.6-2.6,9.3c0,8,0.7,13,2,14.8
		c1.3,1.8,4.8,2.8,10.4,2.8c5,0,8.2-0.6,9.7-1.8c1.5-1.2,2.2-3.8,2.2-7.7v-1h-5.5L424.2,449.4z M382.1,464.9h21.5v-4.3h-21.5V464.9z
		 M380,436.9c0-3-0.7-5-2.2-6c-1.5-1-4.4-1.5-8.7-1.5c-4.6,0-7.6,0.6-9.1,1.7c-1.5,1.1-2.3,3.3-2.3,6.7c0,3.3,0.6,5.4,1.9,6.4
		c1.3,1,4.2,1.6,8.7,1.9l3,0.2c1.7,0.1,2.8,0.4,3.3,0.8c0.5,0.5,0.8,1.4,0.8,2.8c0,1.9-0.3,3.1-1,3.6c-0.7,0.5-2.2,0.8-4.7,0.8
		c-3.1,0-5-0.2-5.7-0.7c-0.7-0.4-1.1-1.7-1.1-3.7l0-0.6h-5.3l0,1c0,3.3,0.7,5.5,2.2,6.6c1.5,1.1,4.5,1.6,9,1.6c5,0,8.3-0.6,9.7-1.7
		c1.5-1.1,2.2-3.6,2.2-7.4c0-3.1-0.6-5.1-1.9-6.1c-1.3-1-4-1.6-8.3-1.8c-3.6-0.2-5.7-0.5-6.4-0.8c-0.6-0.4-1-1.5-1-3.3
		c0-1.5,0.4-2.5,1.2-3c0.8-0.5,2.5-0.7,5.1-0.7c2.2,0,3.6,0.2,4.2,0.6c0.6,0.4,0.9,1.4,1.1,3c0,0.1,0,0.3,0,0.6h5.3V436.9z
		 M354,436.9c0-3-0.7-5-2.2-6c-1.5-1-4.4-1.5-8.7-1.5c-4.6,0-7.6,0.6-9.1,1.7c-1.5,1.1-2.3,3.3-2.3,6.7c0,3.3,0.6,5.4,1.9,6.4
		c1.3,1,4.2,1.6,8.7,1.9l3,0.2c1.7,0.1,2.8,0.4,3.3,0.8c0.5,0.5,0.8,1.4,0.8,2.8c0,1.9-0.3,3.1-1,3.6c-0.7,0.5-2.2,0.8-4.7,0.8
		c-3.1,0-5-0.2-5.7-0.7c-0.7-0.4-1.1-1.7-1.1-3.7l0-0.6h-5.3l0,1c0,3.3,0.7,5.5,2.2,6.6c1.5,1.1,4.5,1.6,9,1.6c5,0,8.3-0.6,9.7-1.7
		c1.5-1.1,2.2-3.6,2.2-7.4c0-3.1-0.6-5.1-1.9-6.1c-1.3-1-4-1.6-8.3-1.8c-3.6-0.2-5.7-0.5-6.4-0.8c-0.6-0.4-1-1.5-1-3.3
		c0-1.5,0.4-2.5,1.2-3c0.8-0.5,2.5-0.7,5.1-0.7c2.2,0,3.6,0.2,4.2,0.6c0.6,0.4,0.9,1.4,1.1,3c0,0.1,0,0.3,0,0.6h5.3V436.9z
		 M328.3,434.3v-4.6h-19.6v28.7h19.8v-4.6h-14.3v-8.1h13.4v-4h-13.4v-7.4H328.3z M298.6,429.7v16.5l0,3.7l0.1,1.8l0.1,1.8h-0.2
		l-1.1-2.4l-1.1-2.3c-0.9-1.8-1.6-3.4-2.3-4.7l-7.5-14.5h-9.2v28.7h5.4v-16.5l0-3.8l-0.1-1.9l-0.1-1.9h0.2l0.9,2.1l0.9,2.1
		c0.9,2,1.5,3.3,1.9,4.1l8.2,15.7h9.2v-28.7H298.6z M266.6,458.4h5.4v-28.7h-5.4V458.4z M261.9,436.9c0-3-0.7-5-2.2-6
		c-1.5-1-4.4-1.5-8.7-1.5c-4.6,0-7.6,0.6-9.1,1.7c-1.5,1.1-2.3,3.3-2.3,6.7c0,3.3,0.6,5.4,1.9,6.4c1.3,1,4.2,1.6,8.7,1.9l3,0.2
		c1.7,0.1,2.8,0.4,3.3,0.8c0.5,0.5,0.8,1.4,0.8,2.8c0,1.9-0.3,3.1-1,3.6c-0.7,0.5-2.2,0.8-4.7,0.8c-3.1,0-5-0.2-5.7-0.7
		c-0.7-0.4-1.1-1.7-1.1-3.7l0-0.6h-5.3l0,1c0,3.3,0.7,5.5,2.2,6.6c1.5,1.1,4.5,1.6,9,1.6c5,0,8.3-0.6,9.7-1.7
		c1.5-1.1,2.2-3.6,2.2-7.4c0-3.1-0.6-5.1-1.9-6.1c-1.3-1-4-1.6-8.3-1.8c-3.6-0.2-5.7-0.5-6.4-0.8c-0.6-0.4-1-1.5-1-3.3
		c0-1.5,0.4-2.5,1.2-3c0.8-0.5,2.5-0.7,5.1-0.7c2.2,0,3.6,0.2,4.2,0.6c0.6,0.4,0.9,1.4,1.1,3c0,0.1,0,0.3,0,0.6h5.3V436.9z
		 M230,448.9c0,2.2-0.4,3.6-1.1,4.2c-0.7,0.6-2.5,0.9-5.4,0.9c-2.8,0-4.6-0.3-5.3-0.9c-0.8-0.6-1.1-1.9-1.1-4v-19.4h-5.4v19.4
		c0,3.9,0.8,6.5,2.3,7.7c1.6,1.2,4.8,1.8,9.8,1.8c4.7,0,7.9-0.6,9.4-1.9c1.5-1.3,2.3-3.9,2.3-7.9v-19.1H230V448.9z M189.5,445.7h7
		c2.4,0,3.9,0.2,4.5,0.7c0.6,0.4,0.9,1.5,0.9,3.3c0,1.7-0.3,2.8-0.9,3.3c-0.6,0.5-1.8,0.8-3.6,0.8l-1.9,0h-6V445.7z M189.5,434.3
		h7.8c2.6,0,3.9,1.1,3.9,3.4c0,1.7-0.3,2.8-0.9,3.3c-0.6,0.5-2,0.7-4.1,0.7h-6.7V434.3z M198.9,458.4c3.1,0,5.3-0.6,6.6-1.8
		c1.3-1.2,1.9-3.2,1.9-6.2c0-4-1.6-6.3-4.9-6.8v-0.1c2.8-0.6,4.2-2.7,4.2-6.3c0-2.9-0.6-4.9-1.8-6c-1.2-1.1-3.4-1.6-6.8-1.6H184
		v28.7H198.9z M174.5,438.3v-6.1c0-2.5,1.2-3.7,3.6-3.7h0.5v-3.7h-3.3c-3.5,0-5.2,2.1-5.2,6.3v6.8c0,2.1-0.8,3.3-2.4,3.7v3.8
		c1.6,0.4,2.4,1.6,2.4,3.7v6.8c0,4.2,1.7,6.3,5.2,6.3h3.3v-3.7h-0.4c-2.4,0-3.7-1.2-3.7-3.7v-6.1c0-2.6-0.9-4.3-2.6-5.1
		C173.6,442.6,174.5,440.8,174.5,438.3"/>
</g>
</svg>
