<?xml version="1.0" encoding="utf-8"?>
<!-- Generator: Adobe Illustrator 19.2.1, SVG Export Plug-In . SVG Version: 6.00 Build 0)  -->
<svg version="1.1" id="Layer_1" xmlns="http://www.w3.org/2000/svg" xmlns:xlink="http://www.w3.org/1999/xlink" x="0px" y="0px"
	 width="170px" height="34px" viewBox="0 0 170 34" style="enable-background:new 0 0 170 34;" xml:space="preserve">
<style type="text/css">
	.st0{fill:#E60278;}
	.st1{fill:#FFFFFF;}
	.st2{fill:#0D3E88;}
</style>
<title>seek</title>
<rect class="st0" width="170" height="34"/>
<path class="st1" d="M46,11.9h1.4l3.4,9.3h-1.4l-1-2.8h-3.6l-1,2.8h-1.3L46,11.9z M48.1,17.4l-1.4-4.1l-1.5,4.1H48.1z"/>
<path class="st1" d="M51.7,14.5h1.1v0.9c0.2-0.3,0.5-0.5,0.8-0.7c0.4-0.3,0.9-0.4,1.4-0.4c0.8,0,1.5,0.3,2,0.9
	c0.6,0.7,0.9,1.6,0.8,2.5c0.1,1.2-0.3,2.3-1.2,3.2c-0.5,0.4-1.1,0.6-1.7,0.6c-0.5,0-0.9-0.1-1.3-0.3c-0.3-0.2-0.5-0.4-0.7-0.6v3.5
	h-1.2V14.5z M56,19.8c0.4-0.6,0.6-1.3,0.5-2c0-0.5-0.1-1-0.2-1.4c-0.3-0.9-1.3-1.3-2.2-1c-0.5,0.2-0.9,0.6-1,1.1
	c-0.2,0.5-0.3,1.1-0.2,1.6c0,0.5,0,0.9,0.2,1.3c0.4,0.9,1.4,1.3,2.3,0.9C55.6,20.2,55.8,20,56,19.8z"/>
<path class="st1" d="M58.9,14.5H60v0.9c0.2-0.3,0.5-0.5,0.8-0.7c0.4-0.3,0.9-0.4,1.4-0.4c0.8,0,1.5,0.3,2,0.9
	c0.6,0.7,0.9,1.6,0.8,2.5c0.1,1.2-0.3,2.3-1.2,3.2c-0.5,0.4-1.1,0.6-1.7,0.6c-0.5,0-0.9-0.1-1.3-0.3c-0.3-0.2-0.5-0.4-0.7-0.6v3.5
	h-1.1V14.5z M63.2,19.8c0.4-0.6,0.6-1.3,0.5-2c0-0.5-0.1-1-0.2-1.4c-0.3-0.9-1.3-1.3-2.2-1c-0.5,0.2-0.9,0.6-1,1.1
	C60.1,17,60,17.5,60,18.1c0,0.5,0.1,0.9,0.2,1.3c0.4,0.9,1.4,1.3,2.3,0.9C62.8,20.2,63,20,63.2,19.8L63.2,19.8z"/>
<path class="st1" d="M66.3,11.9h1.1v9.3h-1.1V11.9z"/>
<path class="st1" d="M73.4,14.4h1.3c-0.2,0.4-0.5,1.4-1.1,3c-0.4,1.2-0.7,2.1-1,2.9c-0.4,1.1-0.8,2.2-1.4,3.2
	c-0.3,0.4-0.9,0.6-1.4,0.6h-0.4L69.1,24v-1l0.4,0h0.2c0.2,0,0.3,0,0.5-0.1c0.1-0.1,0.2-0.2,0.3-0.3c0,0,0.1-0.2,0.2-0.5l0.3-0.7
	l-2.5-7h1.3l1.8,5.6L73.4,14.4z"/>
<path class="st1" d="M79.8,14.4l1.3,5.4l1.3-5.4h1.3l1.3,5.3l1.4-5.3h1.1l-2,6.8h-1.1L83,16l-1.3,5.3h-1.2l-2-6.8L79.8,14.4
	L79.8,14.4z"/>
<path class="st1" d="M88.6,11.9h1.2v1.3h-1.2V11.9z M88.6,14.5h1.2v6.8h-1.2C88.6,21.2,88.6,14.5,88.6,14.5z"/>
<path class="st1" d="M91.8,12.5h1.2v1.9H94v0.9h-1.1v4.4c0,0.2,0.1,0.4,0.2,0.5c0.1,0.1,0.3,0.1,0.4,0.1h0.2H94v0.9
	c-0.1,0-0.3,0.1-0.4,0.1h-0.5c-0.4,0.1-0.8-0.1-1.1-0.4c-0.2-0.3-0.3-0.7-0.3-1.1v-4.5h-0.9v-0.9h0.9L91.8,12.5L91.8,12.5z"/>
<path class="st1" d="M95.1,11.9h1.1v3.5c0.2-0.3,0.4-0.5,0.7-0.7c0.4-0.3,0.9-0.4,1.4-0.4c0.8-0.1,1.6,0.3,2,1
	c0.2,0.5,0.3,1,0.3,1.6v4.4h-1.2v-4.3c0-0.4,0-0.8-0.2-1.1c-0.3-0.4-0.7-0.6-1.2-0.6c-0.5,0-0.9,0.2-1.3,0.5
	c-0.5,0.5-0.7,1.2-0.6,1.8v3.6h-1.1V11.9z"/>
<path class="st1" d="M107,18.2c0,0.5,0.1,0.9,0.4,1.3c0.5,0.7,1.3,1,2.1,0.9c0.4,0,0.8-0.1,1.3-0.2c0.6-0.2,1.1-0.7,1.1-1.4
	c0-0.4-0.1-0.8-0.5-1.1c-0.5-0.3-0.9-0.5-1.5-0.5l-1.2-0.3c-0.6-0.1-1.2-0.3-1.7-0.6c-0.6-0.4-0.9-1.1-0.9-1.8
	c0-0.8,0.3-1.5,0.8-2.1c0.7-0.6,1.5-0.9,2.4-0.8c0.9,0,1.7,0.2,2.4,0.7c0.7,0.5,1.1,1.4,1,2.3h-1.2c0-0.4-0.2-0.8-0.4-1.1
	c-0.5-0.5-1.2-0.8-1.9-0.7c-0.6-0.1-1.1,0.1-1.5,0.5c-0.3,0.3-0.5,0.7-0.5,1.1c0,0.4,0.2,0.8,0.6,1c0.5,0.2,1.1,0.4,1.6,0.5l1.3,0.3
	c0.5,0.1,1,0.3,1.4,0.6c0.6,0.5,0.9,1.2,0.9,1.9c0.1,0.9-0.4,1.7-1.1,2.2c-0.8,0.5-1.7,0.7-2.6,0.7c-1,0.1-1.9-0.3-2.7-0.9
	c-0.7-0.6-1-1.5-0.9-2.4L107,18.2L107,18.2z"/>
<path class="st1" d="M118.8,14.6c0.4,0.2,0.7,0.5,1,0.9c0.2,0.4,0.4,0.8,0.4,1.2c0.1,0.5,0.1,1,0.1,1.5h-4.9c0,0.6,0.2,1.2,0.5,1.7
	c0.3,0.4,0.9,0.7,1.4,0.6c0.5,0,1.1-0.2,1.4-0.6c0.2-0.2,0.3-0.5,0.4-0.8h1.1c0,0.3-0.1,0.6-0.3,0.8c-0.1,0.3-0.3,0.5-0.6,0.8
	c-0.4,0.3-0.8,0.6-1.3,0.7c-0.3,0.1-0.6,0.1-0.9,0.1c-0.8,0-1.6-0.3-2.1-0.9c-0.6-0.7-0.9-1.6-0.9-2.6c0-1,0.3-1.9,0.9-2.7
	c0.6-0.7,1.4-1,2.3-1C117.9,14.3,118.4,14.4,118.8,14.6z M119.3,17.3c0-0.4-0.1-0.8-0.3-1.2c-0.3-0.6-0.9-0.9-1.6-0.8
	c-0.5,0-1,0.2-1.3,0.6c-0.4,0.4-0.6,0.9-0.6,1.4L119.3,17.3L119.3,17.3z"/>
<path class="st1" d="M126.1,14.6c0.4,0.2,0.7,0.5,1,0.9c0.2,0.4,0.4,0.8,0.4,1.2c0.1,0.5,0.1,1,0.1,1.5h-4.9c0,0.6,0.2,1.2,0.5,1.7
	c0.3,0.4,0.9,0.7,1.4,0.6c0.5,0,1.1-0.2,1.4-0.6c0.2-0.2,0.3-0.5,0.4-0.8h1.1c0,0.3-0.1,0.6-0.3,0.8c-0.1,0.3-0.3,0.5-0.6,0.8
	c-0.4,0.3-0.8,0.6-1.3,0.7c-0.3,0.1-0.6,0.1-0.9,0.1c-0.8,0-1.6-0.3-2.1-0.9c-0.6-0.7-0.9-1.6-0.8-2.5c0-1,0.3-1.9,0.9-2.7
	c0.6-0.7,1.4-1,2.3-1C125.2,14.3,125.6,14.4,126.1,14.6z M126.5,17.3c0-0.4-0.1-0.8-0.3-1.2c-0.3-0.6-0.9-0.9-1.6-0.8
	c-0.5,0-1,0.2-1.3,0.6c-0.4,0.4-0.6,0.9-0.6,1.4L126.5,17.3L126.5,17.3z"/>
<path class="st1" d="M129.1,11.9h1.1v5.4l2.9-2.9h1.5L132,17l2.8,4.3h-1.5l-2.1-3.5l-0.9,0.9v2.5h-1.1L129.1,11.9L129.1,11.9z"/>
<circle class="st2" cx="21.2" cy="17" r="9"/>
<circle class="st1" cx="27.8" cy="17" r="0.8"/>
<circle class="st1" cx="25.8" cy="17" r="0.7"/>
<circle class="st1" cx="25.8" cy="15.1" r="0.7"/>
<circle class="st1" cx="25.8" cy="18.9" r="0.7"/>
<circle class="st1" cx="23.9" cy="18.9" r="0.6"/>
<circle class="st1" cx="23.9" cy="17" r="0.6"/>
<circle class="st1" cx="23.9" cy="15.1" r="0.6"/>
<circle class="st1" cx="23.9" cy="13.2" r="0.6"/>
<circle class="st1" cx="23.9" cy="13.2" r="0.6"/>
<circle class="st1" cx="23.9" cy="20.8" r="0.6"/>
<circle class="st1" cx="22" cy="20.9" r="0.6"/>
<circle class="st1" cx="22" cy="22.7" r="0.6"/>
<circle class="st1" cx="22" cy="18.9" r="0.6"/>
<circle class="st1" cx="20.3" cy="19" r="0.5"/>
<circle class="st1" cx="20.3" cy="17" r="0.5"/>
<circle class="st1" cx="20.3" cy="15.1" r="0.5"/>
<circle class="st1" cx="18.8" cy="15.1" r="0.5"/>
<circle class="st1" cx="18.8" cy="17" r="0.5"/>
<circle class="st1" cx="18.8" cy="19" r="0.5"/>
<circle class="st1" cx="17.4" cy="19" r="0.4"/>
<circle class="st1" cx="17.4" cy="17" r="0.4"/>
<circle class="st1" cx="17.4" cy="15.1" r="0.4"/>
<circle class="st1" cx="16.2" cy="15.1" r="0.3"/>
<circle class="st1" cx="16.2" cy="17" r="0.3"/>
<circle class="st1" cx="16.2" cy="18.9" r="0.3"/>
<circle class="st1" cx="15" cy="18.9" r="0.3"/>
<circle class="st1" cx="15" cy="17" r="0.3"/>
<circle class="st1" cx="15" cy="15.1" r="0.3"/>
<circle class="st1" cx="14.1" cy="15.1" r="0.2"/>
<circle class="st1" cx="14.1" cy="17" r="0.2"/>
<circle class="st1" cx="14.1" cy="19" r="0.2"/>
<circle class="st1" cx="22" cy="17" r="0.6"/>
<circle class="st1" cx="22" cy="15.1" r="0.6"/>
<circle class="st1" cx="22" cy="13.2" r="0.6"/>
<circle class="st1" cx="22" cy="11.3" r="0.6"/>
</svg>
