<?xml version="1.0" encoding="utf-8"?>
<!-- Generator: Adobe Illustrator 19.2.1, SVG Export Plug-In . SVG Version: 6.00 Build 0)  -->
<svg version="1.1" id="Layer_1" xmlns="http://www.w3.org/2000/svg" xmlns:xlink="http://www.w3.org/1999/xlink" x="0px" y="0px"
	 width="170px" height="34px" viewBox="0 0 170 34" style="enable-background:new 0 0 170 34;" xml:space="preserve">
<style type="text/css">
	.st0{fill:#3B5998;}
	.st1{fill:#FFFFFF;}
</style>
<title>apply-with-facebook</title>
<rect class="st0" width="170" height="34"/>
<path class="st1" d="M22,8.2v2.7c0,0-2.2-0.2-2.7,0.6c-0.3,0.4-0.1,1.5-0.2,2.8H22c-0.2,1.2-0.4,1.8-0.6,3.1h-2.4V26h-3.7v-8.6h-1.8
	v-3.1h1.7c0.1-2.4,0.1-4.2,1.2-5.3S18.3,8,22,8"/>
<path class="st1" d="M37.8,11.8h1.4l3.4,9.3h-1.4l-1-2.8h-3.6l-1,2.8h-1.3L37.8,11.8z M39.9,17.3l-1.4-4.1L37,17.3L39.9,17.3
	L39.9,17.3z"/>
<path class="st1" d="M43.5,14.3h1.1v0.9c0.2-0.3,0.5-0.5,0.8-0.7c0.4-0.3,0.9-0.4,1.4-0.4c0.8,0,1.5,0.3,2,0.9
	c0.6,0.7,0.9,1.6,0.8,2.5c0.1,1.2-0.3,2.3-1.2,3.2c-0.5,0.4-1.1,0.6-1.7,0.6c-0.5,0-0.9-0.1-1.3-0.3c-0.3-0.2-0.5-0.4-0.7-0.6v3.5
	h-1.2V14.3z M47.8,19.7c0.4-0.6,0.6-1.3,0.5-2c0-0.5-0.1-1-0.2-1.4c-0.3-0.9-1.3-1.3-2.2-1c-0.5,0.2-0.9,0.6-1,1.1
	c-0.2,0.5-0.3,1.1-0.2,1.6c0,0.5,0.1,0.9,0.2,1.3c0.4,0.9,1.4,1.3,2.3,0.9C47.4,20.1,47.6,19.9,47.8,19.7z"/>
<path class="st1" d="M50.7,14.3h1.1v0.9c0.2-0.3,0.5-0.5,0.8-0.7c0.4-0.3,0.9-0.4,1.4-0.4c0.8,0,1.5,0.3,2,0.9
	c0.6,0.7,0.9,1.6,0.8,2.5c0.1,1.2-0.3,2.3-1.2,3.2c-0.5,0.4-1.1,0.6-1.7,0.6c-0.5,0-0.9-0.1-1.4-0.3c-0.3-0.2-0.5-0.4-0.7-0.6v3.5
	h-1.1V14.3z M55,19.7c0.4-0.6,0.6-1.3,0.5-2c0-0.5-0.1-1-0.2-1.4c-0.3-0.9-1.3-1.3-2.2-1c-0.5,0.2-0.9,0.6-1,1.1
	c-0.2,0.5-0.3,1.1-0.2,1.6c0,0.5,0.1,0.9,0.2,1.3c0.4,0.9,1.4,1.3,2.3,0.9C54.6,20.1,54.8,19.9,55,19.7z"/>
<path class="st1" d="M58.1,11.8h1.1v9.3h-1.1V11.8z"/>
<path class="st1" d="M65.2,14.3h1.3c-0.2,0.4-0.5,1.4-1.1,3c-0.4,1.2-0.7,2.1-1,2.9c-0.4,1.1-0.8,2.1-1.4,3.1
	c-0.3,0.4-0.9,0.6-1.4,0.6h-0.4l-0.3-0.1v-1l0.4,0.1h0.2c0.2,0,0.3,0,0.5-0.1c0.1-0.1,0.2-0.2,0.3-0.3c0,0,0.1-0.2,0.2-0.5l0.3-0.7
	l-2.5-7h1.3l1.8,5.5L65.2,14.3z"/>
<path class="st1" d="M71.6,14.3l1.3,5.4l1.3-5.4h1.3l1.3,5.3l1.4-5.3h1.1l-2,6.8h-1.2l-1.4-5.3l-1.3,5.3h-1.2l-2-6.8H71.6z"/>
<path class="st1" d="M80.5,11.8h1.2v1.3h-1.2V11.8z M80.5,14.3h1.2v6.8h-1.2V14.3z"/>
<path class="st1" d="M83.6,12.4h1.2v1.9h1.1v0.9h-1.1v4.4c0,0.2,0.1,0.4,0.2,0.5c0.1,0.1,0.3,0.1,0.4,0.1h0.2h0.2v0.9
	c-0.1,0-0.3,0.1-0.4,0.1h-0.5c-0.4,0.1-0.8-0.1-1.1-0.4c-0.2-0.3-0.3-0.7-0.3-1.1v-4.5h-0.9v-0.9h0.9V12.4z"/>
<path class="st1" d="M87,11.7h1.1v3.5c0.2-0.3,0.5-0.5,0.7-0.7c0.4-0.3,0.9-0.4,1.4-0.4c0.8-0.1,1.6,0.3,2,1c0.2,0.5,0.3,1,0.3,1.6
	v4.4h-1.2v-4.3c0-0.4,0-0.8-0.2-1.1c-0.2-0.4-0.7-0.6-1.1-0.6c-0.5,0-0.9,0.2-1.3,0.5c-0.5,0.5-0.7,1.2-0.6,1.9v3.6H87V11.7z"/>
<path class="st1" d="M98.3,12.2c0.4-0.4,1-0.7,1.5-0.6h0.2h0.3v1h-0.3h-0.1c-0.2-0.1-0.5,0.1-0.6,0.3c-0.1,0.5-0.1,0.9-0.1,1.4h1.1
	v0.9h-1.2v5.9h-1.1v-5.9h-0.9v-0.9h0.9v-1.1C98.1,12.9,98.2,12.5,98.3,12.2z"/>
<path class="st1" d="M105.1,17c0.2,0,0.4-0.1,0.5-0.3c0.1-0.1,0.1-0.3,0.1-0.4c0-0.3-0.1-0.7-0.4-0.8c-0.4-0.2-0.8-0.3-1.2-0.3
	c-0.5-0.1-0.9,0.1-1.3,0.5c-0.2,0.2-0.3,0.5-0.3,0.8h-1.1c0-0.7,0.3-1.3,0.8-1.8c0.5-0.3,1.2-0.5,1.8-0.5c0.7,0,1.4,0.1,1.9,0.5
	c0.5,0.3,0.8,0.8,0.7,1.4V20c0,0.1,0,0.2,0.1,0.3c0.1,0.1,0.2,0.1,0.3,0.1h0.2h0.2v0.8l-0.4,0.1h-0.4c-0.3,0-0.7-0.1-0.9-0.4
	c-0.1-0.2-0.2-0.4-0.2-0.6c-0.3,0.3-0.6,0.6-1,0.8c-0.4,0.2-0.9,0.3-1.4,0.3c-0.6,0-1.1-0.2-1.6-0.6c-0.4-0.4-0.6-0.9-0.6-1.4
	c0-0.6,0.2-1.1,0.6-1.5c0.4-0.4,1-0.6,1.6-0.6L105.1,17z M102.6,20.1c0.2,0.2,0.5,0.3,0.9,0.3c0.4,0,0.8-0.1,1.2-0.3
	c0.6-0.2,1-0.8,1-1.5v-1c-0.2,0.1-0.4,0.2-0.5,0.2c-0.2,0.1-0.4,0.1-0.7,0.1l-0.7,0.1c-0.3,0-0.6,0.1-0.9,0.3
	c-0.3,0.2-0.6,0.6-0.5,1C102.3,19.6,102.4,19.9,102.6,20.1L102.6,20.1z"/>
<path class="st1" d="M113.1,14.7c0.5,0.5,0.9,1.2,0.9,1.9h-1.1c-0.1-0.4-0.2-0.7-0.5-1c-0.3-0.3-0.7-0.5-1.2-0.4
	c-0.7,0-1.3,0.4-1.6,1.1c-0.2,0.5-0.3,1.1-0.3,1.7c0,0.6,0.1,1.2,0.4,1.7c0.5,0.8,1.6,0.9,2.3,0.4c0.1,0,0.1-0.1,0.1-0.1
	c0.3-0.3,0.5-0.7,0.6-1.2h1.1c0,1.5-1.3,2.7-2.8,2.6c0,0-0.1,0-0.1,0c-0.8,0-1.6-0.3-2.1-1c-0.5-0.7-0.8-1.6-0.8-2.4
	c-0.1-1,0.2-2,0.8-2.8c0.5-0.7,1.4-1,2.2-1C111.9,14.1,112.6,14.3,113.1,14.7z"/>
<path class="st1" d="M119.3,14.5c0.4,0.2,0.7,0.5,1,0.9c0.2,0.4,0.4,0.8,0.4,1.2c0.1,0.5,0.1,1,0.1,1.5H116c0,0.6,0.2,1.2,0.5,1.7
	c0.3,0.4,0.9,0.7,1.4,0.6c0.5,0,1.1-0.2,1.4-0.6c0.2-0.2,0.3-0.5,0.4-0.8h1.1c0,0.3-0.1,0.6-0.3,0.8c-0.1,0.3-0.3,0.5-0.6,0.8
	c-0.4,0.3-0.8,0.6-1.3,0.7c-0.3,0.1-0.6,0.1-0.9,0.1c-0.8,0-1.6-0.3-2.1-0.9c-0.6-0.7-0.9-1.6-0.9-2.6c0-1,0.3-1.9,0.9-2.7
	c0.6-0.7,1.4-1,2.3-1C118.4,14.2,118.9,14.3,119.3,14.5z M119.8,17.2c0-0.4-0.1-0.8-0.3-1.2c-0.3-0.6-0.9-0.9-1.6-0.8
	c-0.5,0-1,0.2-1.3,0.6c-0.4,0.4-0.6,0.9-0.6,1.4L119.8,17.2L119.8,17.2z"/>
<path class="st1" d="M122.3,11.7h1.1v3.4c0.5-0.6,1.2-1,2-1c0.8,0,1.5,0.3,2.1,0.9c0.6,0.7,0.9,1.6,0.8,2.6c0,1-0.2,1.9-0.8,2.7
	c-0.5,0.7-1.3,1.1-2.2,1.1c-0.5,0-0.9-0.1-1.3-0.4c-0.3-0.2-0.5-0.4-0.7-0.7v0.9h-1.1L122.3,11.7L122.3,11.7z M126.6,19.6
	c0.3-0.6,0.5-1.3,0.5-1.9c0-0.6-0.1-1.2-0.5-1.8c-0.3-0.5-0.8-0.7-1.4-0.7c-0.5,0-1,0.2-1.4,0.6c-0.4,0.5-0.7,1.2-0.6,1.9
	c0,0.5,0.1,1.1,0.2,1.6c0.2,0.7,0.9,1.2,1.7,1.1C125.8,20.3,126.3,20.1,126.6,19.6z"/>
<path class="st1" d="M134.5,15c0.6,0.7,1,1.6,0.9,2.6c0,1-0.2,1.9-0.8,2.7c-0.6,0.7-1.5,1.1-2.5,1.1c-0.8,0-1.7-0.3-2.2-1
	c-0.6-0.7-0.9-1.6-0.8-2.5c-0.1-1,0.3-2,0.9-2.7c0.6-0.7,1.4-1,2.3-1C133.2,14.1,133.9,14.4,134.5,15z M133.8,19.5
	c0.3-0.6,0.4-1.2,0.4-1.9c0-0.5-0.1-1.1-0.3-1.5c-0.3-0.6-1-1-1.6-0.9c-0.6,0-1.2,0.3-1.5,0.8c-0.3,0.6-0.5,1.3-0.5,1.9
	c0,0.6,0.1,1.3,0.5,1.8c0.3,0.5,0.9,0.8,1.5,0.7C132.9,20.4,133.5,20.1,133.8,19.5L133.8,19.5z"/>
<path class="st1" d="M141.8,15c0.6,0.7,1,1.6,0.9,2.6c0,1-0.2,1.9-0.8,2.7c-0.6,0.7-1.5,1.1-2.5,1.1c-0.8,0-1.7-0.3-2.2-1
	c-0.6-0.7-0.9-1.6-0.8-2.5c-0.1-1,0.3-2,0.9-2.7c0.6-0.7,1.4-1,2.3-1C140.4,14.1,141.2,14.4,141.8,15z M141,19.5
	c0.3-0.6,0.4-1.2,0.4-1.9c0-0.5-0.1-1.1-0.3-1.5c-0.3-0.6-1-1-1.6-0.9c-0.6,0-1.2,0.3-1.5,0.8c-0.3,0.6-0.5,1.3-0.5,1.9
	c0,0.6,0.1,1.3,0.5,1.8c0.3,0.5,0.9,0.8,1.5,0.7C140.1,20.4,140.7,20.1,141,19.5z"/>
<path class="st1" d="M144,11.8h1.1v5.4l2.9-2.9h1.5l-2.6,2.5l2.8,4.3h-1.5l-2.1-3.5l-0.9,0.9v2.6H144V11.8z"/>
</svg>
