<?xml version="1.0" encoding="utf-8"?>
<!-- Generator: Adobe Illustrator 19.2.1, SVG Export Plug-In . SVG Version: 6.00 Build 0)  -->
<svg version="1.1" id="Layer_1" xmlns="http://www.w3.org/2000/svg" xmlns:xlink="http://www.w3.org/1999/xlink" x="0px" y="0px"
	 width="170px" height="34px" viewBox="0 0 170 34" style="enable-background:new 0 0 170 34;" xml:space="preserve">
<style type="text/css">
	.st0{fill:#007BB6;}
	.st1{fill:#FFFFFF;}
</style>
<title>Linkedin-SignIn</title>
<rect class="st0" width="170" height="34"/>
<path class="st1" d="M28.8,26v-6.7c0-1.3-0.2-2.7-1.8-2.7s-2,1.3-2,2.7V26h-4.4V14.1H25v1.5c0.6-1.4,2-2,3.7-2s4.5,0.8,4.5,5.5v7
	C33.2,26,28.8,26,28.8,26z M16.8,12.2c-1.2,0.1-2.3-0.9-2.3-2.1C14.5,8.9,15.5,8,16.7,8c1.2-0.1,2.3,0.9,2.3,2.1
	C19,11.3,18,12.2,16.8,12.2 M18.7,26h-3.8V14.1h3.8L18.7,26L18.7,26z"/>
<path class="st1" d="M42.6,18.2c0,0.5,0.1,0.9,0.4,1.3c0.5,0.7,1.3,1,2.1,0.9c0.4,0,0.8-0.1,1.3-0.2c0.6-0.2,1.1-0.7,1.1-1.4
	c0-0.4-0.1-0.8-0.5-1.1c-0.5-0.3-0.9-0.5-1.5-0.5l-1.2-0.3c-0.6-0.1-1.2-0.3-1.7-0.6c-0.6-0.4-0.9-1.1-0.9-1.8
	c0-0.8,0.3-1.5,0.8-2.1c0.7-0.6,1.5-0.9,2.4-0.8c0.9,0,1.7,0.2,2.4,0.7c0.7,0.5,1.1,1.4,1,2.3h-1.2c0-0.4-0.2-0.8-0.4-1.1
	c-0.5-0.5-1.1-0.8-1.8-0.7c-0.6-0.1-1.1,0.1-1.5,0.5c-0.3,0.3-0.5,0.7-0.5,1.1c0,0.4,0.2,0.8,0.5,1c0.5,0.2,1.1,0.4,1.6,0.5l1.3,0.3
	c0.5,0.1,1,0.3,1.4,0.6c0.6,0.5,0.9,1.2,0.9,1.9c0.1,0.9-0.3,1.7-1.1,2.2c-0.8,0.5-1.7,0.7-2.5,0.7c-1,0.1-1.9-0.3-2.7-0.9
	c-0.7-0.6-1-1.5-0.9-2.4L42.6,18.2L42.6,18.2z"/>
<path class="st1" d="M50.3,11.9h1.2v1.3h-1.2V11.9z M50.3,14.5h1.2v6.8h-1.2C50.3,21.2,50.3,14.5,50.3,14.5z"/>
<path class="st1" d="M57,14.7c0.3,0.2,0.5,0.4,0.7,0.6v-0.9h1v6.2c0,0.7-0.1,1.4-0.4,2c-0.5,1-1.6,1.5-2.7,1.4
	c-0.6,0-1.3-0.1-1.8-0.5c-0.5-0.3-0.8-0.9-0.8-1.5h1.2c0,0.3,0.2,0.5,0.3,0.7c0.9,0.7,2.2,0.4,2.9-0.5c0,0,0,0,0-0.1
	c0.2-0.6,0.3-1.3,0.2-2c-0.2,0.3-0.5,0.6-0.8,0.8c-1.1,0.5-2.3,0.3-3.2-0.5c-0.6-0.7-0.9-1.6-0.8-2.6c-0.1-1,0.2-1.9,0.8-2.7
	c0.5-0.6,1.2-1,2-1C56.1,14.3,56.6,14.4,57,14.7z M57.1,15.9c-0.3-0.4-0.8-0.6-1.3-0.6c-0.7,0-1.4,0.4-1.6,1.1
	c-0.2,0.5-0.3,1-0.3,1.5c0,0.6,0.1,1.2,0.5,1.8c0.3,0.4,0.8,0.6,1.3,0.6c0.8,0,1.4-0.4,1.7-1.1c0.2-0.5,0.3-1,0.3-1.5
	C57.7,17.1,57.5,16.5,57.1,15.9L57.1,15.9z"/>
<path class="st1" d="M60.4,14.4h1.1v1c0.3-0.4,0.6-0.7,1-0.9c0.4-0.2,0.8-0.3,1.2-0.3c0.8-0.1,1.6,0.3,2,1c0.2,0.5,0.3,1,0.3,1.6
	v4.4h-1.2v-4.3c0-0.3,0-0.7-0.2-1c-0.2-0.4-0.6-0.7-1.1-0.6c-0.2,0-0.5,0-0.7,0.1c-0.3,0.1-0.6,0.3-0.8,0.6
	c-0.2,0.2-0.3,0.4-0.4,0.7c-0.1,0.3-0.1,0.7-0.1,1v3.6h-1.1V14.4L60.4,14.4z"/>
<path class="st1" d="M71.3,11.9h1.2v1.3h-1.2V11.9z M71.3,14.5h1.2v6.8h-1.2C71.3,21.2,71.3,14.5,71.3,14.5z"/>
<path class="st1" d="M74.2,14.4h1.1v1c0.3-0.4,0.6-0.7,1-0.9c0.4-0.2,0.8-0.3,1.2-0.3c0.8-0.1,1.6,0.3,2,1c0.2,0.5,0.3,1,0.3,1.6
	v4.4h-1.2v-4.3c0-0.3,0-0.7-0.2-1c-0.2-0.4-0.6-0.7-1.1-0.6c-0.2,0-0.5,0-0.7,0.1c-0.3,0.1-0.6,0.3-0.8,0.6
	c-0.2,0.2-0.3,0.4-0.4,0.7c-0.1,0.3-0.1,0.7-0.1,1v3.6h-1.1V14.4L74.2,14.4z"/>
<path class="st1" d="M85.5,14.4l1.3,5.4l1.3-5.4h1.3l1.3,5.3l1.4-5.3h1.1l-2,6.8h-1.2L88.8,16l-1.3,5.3h-1.2l-2-6.8L85.5,14.4
	L85.5,14.4z"/>
<path class="st1" d="M94.4,11.9h1.2v1.3h-1.2V11.9z M94.4,14.5h1.2v6.8h-1.2C94.4,21.2,94.4,14.5,94.4,14.5z"/>
<path class="st1" d="M97.5,12.5h1.2v1.9h1.1v0.9h-1.1v4.4c0,0.2,0.1,0.4,0.2,0.5c0.1,0.1,0.3,0.1,0.4,0.1h0.2h0.2v0.9
	c-0.1,0-0.3,0.1-0.4,0.1h-0.5c-0.4,0.1-0.8-0.1-1.1-0.4c-0.2-0.3-0.3-0.7-0.3-1.1v-4.5h-0.9v-0.9h0.9L97.5,12.5L97.5,12.5z"/>
<path class="st1" d="M100.9,11.9h1.1v3.5c0.2-0.3,0.5-0.5,0.7-0.7c0.4-0.3,0.9-0.4,1.4-0.4c0.8-0.1,1.6,0.3,2,1
	c0.2,0.5,0.3,1,0.3,1.6v4.4h-1.2v-4.3c0-0.4,0-0.8-0.2-1.1c-0.3-0.4-0.7-0.6-1.2-0.6c-0.5,0-0.9,0.2-1.3,0.5
	c-0.5,0.5-0.7,1.2-0.6,1.8v3.6h-1.1L100.9,11.9L100.9,11.9z"/>
<path class="st1" d="M111.9,11.9h1.3v8.2h4.7v1.1h-5.9V11.9z"/>
<path class="st1" d="M119,11.9h1.2v1.3H119V11.9z M119,14.5h1.2v6.8H119C119,21.2,119,14.5,119,14.5z"/>
<path class="st1" d="M121.8,14.4h1.1v1c0.3-0.4,0.6-0.7,1-0.9c0.4-0.2,0.8-0.3,1.2-0.3c0.8-0.1,1.6,0.3,2,1c0.2,0.5,0.3,1,0.3,1.6
	v4.4h-1.2v-4.3c0-0.3,0-0.7-0.2-1c-0.2-0.4-0.6-0.7-1.1-0.6c-0.2,0-0.5,0-0.7,0.1c-0.3,0.1-0.6,0.3-0.8,0.6
	c-0.2,0.2-0.3,0.4-0.4,0.7c-0.1,0.3-0.1,0.7-0.1,1v3.6h-1.1L121.8,14.4L121.8,14.4z"/>
<path class="st1" d="M129.1,11.9h1.1v5.4l2.9-2.9h1.5l-2.6,2.6l2.8,4.3h-1.5l-2.1-3.5l-0.9,0.9v2.5H129L129.1,11.9L129.1,11.9z"/>
<path class="st1" d="M139.8,14.6c0.4,0.2,0.7,0.5,1,0.9c0.2,0.4,0.4,0.8,0.4,1.2c0.1,0.5,0.1,1,0.1,1.5h-4.9c0,0.6,0.2,1.2,0.5,1.7
	c0.3,0.4,0.9,0.7,1.4,0.6c0.5,0,1.1-0.2,1.4-0.6c0.2-0.2,0.3-0.5,0.4-0.8h1.1c0,0.3-0.1,0.6-0.3,0.8c-0.1,0.3-0.3,0.5-0.6,0.8
	c-0.4,0.3-0.8,0.6-1.3,0.7c-0.3,0.1-0.6,0.1-0.9,0.1c-0.8,0-1.6-0.3-2.1-0.9c-0.6-0.7-0.9-1.6-0.8-2.5c0-1,0.3-1.9,0.9-2.7
	c0.6-0.7,1.4-1,2.3-1C138.9,14.3,139.3,14.4,139.8,14.6z M140.2,17.3c0-0.4-0.1-0.8-0.3-1.2c-0.3-0.6-0.9-0.9-1.6-0.8
	c-0.5,0-1,0.2-1.3,0.6c-0.4,0.4-0.6,0.9-0.6,1.4L140.2,17.3L140.2,17.3z"/>
<path class="st1" d="M146.6,14.6c0.3,0.2,0.5,0.4,0.7,0.7v-3.4h1.1v9.4h-1v-0.9c-0.2,0.4-0.6,0.7-0.9,0.9c-0.4,0.2-0.8,0.3-1.3,0.3
	c-0.8,0-1.5-0.4-2-1c-0.6-0.7-0.9-1.6-0.8-2.5c0-0.9,0.2-1.8,0.8-2.6c0.5-0.7,1.3-1.1,2.2-1.1C145.7,14.3,146.2,14.4,146.6,14.6z
	 M144,19.7c0.3,0.5,0.9,0.8,1.5,0.7c0.5,0,1-0.2,1.3-0.7c0.4-0.6,0.6-1.3,0.5-2c0.1-0.7-0.1-1.4-0.5-1.9c-0.3-0.4-0.8-0.6-1.3-0.6
	c-0.5,0-1.1,0.2-1.4,0.7c-0.4,0.6-0.6,1.3-0.5,1.9C143.5,18.5,143.7,19.2,144,19.7z"/>
<path class="st1" d="M150.5,11.9h1.3v9.3h-1.3V11.9z"/>
<path class="st1" d="M153.7,14.4h1.1v1c0.3-0.4,0.6-0.7,1-0.9c0.4-0.2,0.8-0.3,1.2-0.3c0.8-0.1,1.6,0.3,2,1c0.2,0.5,0.3,1,0.3,1.6
	v4.4H158v-4.3c0-0.3,0-0.7-0.2-1c-0.2-0.4-0.6-0.7-1.1-0.6c-0.2,0-0.5,0-0.7,0.1c-0.3,0.1-0.6,0.3-0.8,0.6c-0.2,0.2-0.3,0.4-0.4,0.7
	c-0.1,0.3-0.1,0.7-0.1,1v3.6h-1.1L153.7,14.4L153.7,14.4z"/>
</svg>
