<?xml version="1.0" encoding="utf-8"?>
<!-- Generator: Adobe Illustrator 19.2.1, SVG Export Plug-In . SVG Version: 6.00 Build 0)  -->
<svg version="1.1" id="Layer_1" xmlns="http://www.w3.org/2000/svg" xmlns:xlink="http://www.w3.org/1999/xlink" x="0px" y="0px"
	 width="170px" height="34px" viewBox="0 0 170 34" style="enable-background:new 0 0 170 34;" xml:space="preserve">
<style type="text/css">
	.st0{fill:#3B5998;}
	.st1{fill:#FFFFFF;}
</style>
<rect class="st0" width="170" height="34"/>
<g>
	<path class="st1" d="M35.3,18.7c0,0.5,0.1,1,0.4,1.3c0.4,0.6,1.1,0.9,2.1,0.9c0.5,0,0.9-0.1,1.2-0.2c0.7-0.3,1.1-0.7,1.1-1.4
		c0-0.5-0.2-0.9-0.5-1.1s-0.8-0.4-1.5-0.6L37,17.4c-0.8-0.2-1.4-0.4-1.7-0.6c-0.6-0.4-0.9-1-0.9-1.7c0-0.8,0.3-1.5,0.8-2.1
		s1.4-0.8,2.4-0.8s1.8,0.2,2.4,0.7c0.7,0.5,1,1.2,1,2.3h-1.2c-0.1-0.5-0.2-0.9-0.4-1.1c-0.4-0.5-1-0.7-1.9-0.7
		c-0.7,0-1.2,0.2-1.5,0.5s-0.5,0.7-0.5,1.1c0,0.5,0.2,0.8,0.6,1c0.2,0.1,0.8,0.3,1.6,0.5l1.3,0.3c0.6,0.1,1.1,0.3,1.4,0.6
		c0.6,0.4,0.9,1.1,0.9,1.9c0,1-0.4,1.8-1.1,2.2c-0.7,0.4-1.6,0.7-2.6,0.7c-1.1,0-2-0.3-2.7-0.9c-0.6-0.6-1-1.4-0.9-2.4h1.3V18.7z"/>
	<path class="st1" d="M43,12.4h1.2v1.3H43V12.4z M43,15h1.2v6.8H43V15z"/>
	<path class="st1" d="M49.7,15.2c0.2,0.1,0.4,0.4,0.7,0.6V15h1.1v6.2c0,0.9-0.1,1.5-0.4,2c-0.5,0.9-1.4,1.4-2.7,1.4
		c-0.7,0-1.3-0.2-1.8-0.5s-0.8-0.8-0.8-1.5H47c0.1,0.3,0.2,0.5,0.3,0.7c0.3,0.3,0.7,0.4,1.2,0.4c0.9,0,1.4-0.3,1.7-0.9
		c0.2-0.4,0.2-1,0.2-1.9c-0.2,0.3-0.5,0.6-0.8,0.8c-0.3,0.2-0.7,0.3-1.3,0.3c-0.7,0-1.4-0.3-1.9-0.8c-0.6-0.5-0.8-1.4-0.8-2.6
		c0-1.1,0.3-2,0.8-2.7s1.2-1,2-1C48.8,14.8,49.3,14.9,49.7,15.2z M49.8,16.4c-0.3-0.4-0.8-0.6-1.3-0.6c-0.8,0-1.3,0.4-1.6,1.1
		c-0.2,0.4-0.2,0.9-0.2,1.6c0,0.8,0.2,1.3,0.5,1.7c0.3,0.4,0.7,0.6,1.2,0.6c0.8,0,1.4-0.4,1.7-1.1c0.2-0.4,0.3-0.9,0.3-1.5
		C50.3,17.5,50.2,16.8,49.8,16.4z"/>
	<path class="st1" d="M53.1,14.9h1.1v1c0.3-0.4,0.7-0.7,1-0.9s0.8-0.3,1.2-0.3c1,0,1.6,0.3,2,1c0.2,0.4,0.3,0.9,0.3,1.6v4.4h-1.2
		v-4.3c0-0.4-0.1-0.7-0.2-1c-0.2-0.4-0.6-0.6-1.1-0.6c-0.3,0-0.5,0-0.7,0.1c-0.3,0.1-0.6,0.3-0.8,0.6c-0.2,0.2-0.3,0.5-0.4,0.7
		c-0.1,0.2-0.1,0.6-0.1,1v3.6h-1.1V14.9z"/>
	<path class="st1" d="M64,12.4h1.2v1.3H64V12.4z M64,15h1.2v6.8H64V15z"/>
	<path class="st1" d="M66.9,14.9H68v1c0.3-0.4,0.7-0.7,1-0.9s0.8-0.3,1.2-0.3c1,0,1.6,0.3,2,1c0.2,0.4,0.3,0.9,0.3,1.6v4.4h-1.2
		v-4.3c0-0.4-0.1-0.7-0.2-1c-0.2-0.4-0.6-0.6-1.1-0.6c-0.3,0-0.5,0-0.7,0.1c-0.3,0.1-0.6,0.3-0.8,0.6c-0.2,0.2-0.3,0.5-0.4,0.7
		s-0.1,0.6-0.1,1v3.6h-1.1C66.9,21.8,66.9,14.9,66.9,14.9z"/>
	<path class="st1" d="M78.2,14.9l1.3,5.4l1.3-5.4h1.3l1.3,5.3l1.4-5.3H86l-2,6.8h-1.2l-1.4-5.3l-1.3,5.3h-1.2l-2-6.8
		C76.9,14.9,78.2,14.9,78.2,14.9z"/>
	<path class="st1" d="M87.1,12.4h1.2v1.3h-1.2V12.4z M87.1,15h1.2v6.8h-1.2V15z"/>
	<path class="st1" d="M90.2,13h1.2v1.9h1.1v0.9h-1.1v4.4c0,0.2,0.1,0.4,0.2,0.5c0.1,0,0.2,0.1,0.4,0.1c0.1,0,0.1,0,0.2,0
		s0.1,0,0.2,0v0.9c-0.1,0-0.3,0.1-0.4,0.1s-0.3,0-0.5,0c-0.5,0-0.9-0.1-1.1-0.4s-0.3-0.6-0.3-1.1v-4.5h-0.9v-0.9h0.9V13H90.2z"/>
	<path class="st1" d="M93.6,12.4h1.1v3.5c0.3-0.3,0.5-0.6,0.7-0.7c0.4-0.2,0.8-0.4,1.4-0.4c1,0,1.7,0.3,2,1c0.2,0.4,0.3,0.9,0.3,1.6
		v4.4H98v-4.3c0-0.5-0.1-0.9-0.2-1.1c-0.2-0.4-0.6-0.6-1.2-0.6c-0.5,0-0.9,0.2-1.3,0.5c-0.4,0.3-0.6,0.9-0.6,1.8v3.6h-1.1
		C93.6,21.7,93.6,12.4,93.6,12.4z"/>
	<path class="st1" d="M105,12.8c0.3-0.4,0.8-0.6,1.5-0.6c0.1,0,0.1,0,0.2,0s0.2,0,0.3,0v1c-0.1,0-0.2,0-0.3,0c-0.1,0-0.1,0-0.2,0
		c-0.4,0-0.6,0.1-0.6,0.3c-0.1,0.2-0.1,0.6-0.1,1.4h1.1v0.9h-1.1v5.9h-1.1v-5.9h-0.9V15h0.9v-1.1C104.7,13.4,104.8,13.1,105,12.8z"
		/>
	<path class="st1" d="M111.7,17.6c0.3,0,0.4-0.1,0.5-0.3c0-0.1,0.1-0.2,0.1-0.4c0-0.4-0.1-0.7-0.4-0.9c-0.3-0.2-0.7-0.3-1.2-0.3
		c-0.6,0-1,0.2-1.3,0.5c-0.1,0.2-0.2,0.4-0.3,0.8H108c0-0.8,0.3-1.4,0.8-1.8c0.5-0.3,1.1-0.5,1.8-0.5c0.8,0,1.4,0.2,1.9,0.5
		s0.7,0.8,0.7,1.4v3.9c0,0.1,0,0.2,0.1,0.3c0,0.1,0.2,0.1,0.3,0.1c0.1,0,0.1,0,0.2,0s0.1,0,0.2,0v0.8c-0.2,0.1-0.3,0.1-0.4,0.1
		s-0.2,0-0.4,0c-0.4,0-0.7-0.1-0.9-0.4c-0.1-0.1-0.2-0.4-0.2-0.6c-0.2,0.3-0.6,0.6-1,0.8c-0.4,0.2-0.9,0.3-1.4,0.3
		c-0.6,0-1.1-0.2-1.5-0.6s-0.6-0.9-0.6-1.4c0-0.6,0.2-1.1,0.6-1.5c0.4-0.3,0.9-0.6,1.5-0.6L111.7,17.6z M109.3,20.7
		c0.2,0.2,0.5,0.3,0.9,0.3s0.8-0.1,1.2-0.3c0.6-0.3,1-0.8,1-1.5v-0.9c-0.1,0.1-0.3,0.2-0.5,0.2c-0.2,0.1-0.4,0.1-0.6,0.1l-0.7,0.1
		c-0.4,0.1-0.7,0.1-0.9,0.3c-0.4,0.2-0.5,0.5-0.5,0.9C108.9,20.2,109,20.5,109.3,20.7z"/>
	<path class="st1" d="M119.8,15.3c0.5,0.4,0.8,1,0.9,1.9h-1.1c-0.1-0.4-0.2-0.8-0.5-1c-0.2-0.3-0.6-0.4-1.2-0.4
		c-0.7,0-1.2,0.4-1.6,1.1c-0.2,0.5-0.3,1-0.3,1.7s0.1,1.3,0.4,1.7c0.3,0.5,0.7,0.7,1.4,0.7c0.5,0,0.8-0.1,1.1-0.4
		c0.3-0.3,0.5-0.7,0.6-1.2h1.1c-0.1,0.9-0.4,1.6-1,2c-0.5,0.4-1.2,0.6-1.9,0.6c-0.9,0-1.6-0.3-2.1-1s-0.8-1.5-0.8-2.4
		c0-1.2,0.3-2.1,0.9-2.8s1.3-1,2.2-1C118.7,14.7,119.3,14.9,119.8,15.3z"/>
	<path class="st1" d="M126,15.1c0.5,0.2,0.8,0.5,1,0.9c0.2,0.3,0.4,0.7,0.5,1.2c0.1,0.3,0.1,0.8,0.1,1.5h-4.9c0,0.7,0.2,1.2,0.5,1.7
		c0.3,0.4,0.8,0.6,1.4,0.6s1.1-0.2,1.4-0.6c0.2-0.2,0.3-0.5,0.4-0.8h1.1c0,0.2-0.1,0.5-0.3,0.8s-0.4,0.6-0.6,0.8
		c-0.3,0.3-0.8,0.6-1.3,0.7c-0.3,0.1-0.6,0.1-0.9,0.1c-0.8,0-1.6-0.3-2.1-0.9c-0.6-0.6-0.9-1.5-0.9-2.6s0.3-2,0.9-2.7s1.4-1,2.3-1
		C125.1,14.8,125.5,14.9,126,15.1z M126.4,17.8c0-0.5-0.2-0.9-0.3-1.2c-0.3-0.6-0.8-0.8-1.6-0.8c-0.5,0-1,0.2-1.3,0.6
		c-0.4,0.4-0.5,0.9-0.6,1.4H126.4z"/>
	<path class="st1" d="M128.9,12.4h1.1v3.4c0.3-0.3,0.5-0.6,0.9-0.7c0.3-0.2,0.7-0.3,1.1-0.3c0.8,0,1.5,0.3,2.1,0.9
		c0.5,0.6,0.8,1.4,0.8,2.6c0,1.1-0.3,2-0.8,2.7s-1.2,1.1-2.2,1.1c-0.5,0-1-0.1-1.3-0.4c-0.2-0.1-0.4-0.4-0.7-0.7v0.9h-1.1
		L128.9,12.4L128.9,12.4z M133.3,20.2c0.3-0.5,0.5-1.1,0.5-1.9c0-0.7-0.2-1.3-0.5-1.8c-0.3-0.5-0.8-0.7-1.4-0.7
		c-0.5,0-1,0.2-1.4,0.6s-0.6,1-0.6,1.9c0,0.6,0.1,1.2,0.2,1.6c0.3,0.7,0.9,1.1,1.7,1.1C132.5,20.9,133,20.7,133.3,20.2z"/>
	<path class="st1" d="M141.2,15.6c0.6,0.6,0.9,1.4,0.9,2.6c0,1.1-0.3,2-0.8,2.7s-1.4,1.1-2.5,1.1c-0.9,0-1.7-0.3-2.2-0.9
		s-0.8-1.5-0.8-2.5c0-1.1,0.3-2.1,0.9-2.7c0.6-0.7,1.3-1,2.3-1C139.8,14.7,140.6,15,141.2,15.6z M140.4,20.1
		c0.3-0.6,0.4-1.2,0.4-1.9c0-0.6-0.1-1.1-0.3-1.5c-0.3-0.6-0.9-0.9-1.6-0.9c-0.7,0-1.2,0.3-1.5,0.8s-0.5,1.2-0.5,1.9
		s0.2,1.3,0.5,1.8s0.8,0.7,1.5,0.7C139.7,21,140.2,20.7,140.4,20.1z"/>
	<path class="st1" d="M148.4,15.6c0.6,0.6,0.9,1.4,0.9,2.6c0,1.1-0.3,2-0.8,2.7S147.1,22,146,22c-0.9,0-1.7-0.3-2.2-0.9
		s-0.8-1.5-0.8-2.5c0-1.1,0.3-2.1,0.9-2.7c0.6-0.7,1.3-1,2.3-1C147.1,14.7,147.8,15,148.4,15.6z M147.7,20.1
		c0.3-0.6,0.4-1.2,0.4-1.9c0-0.6-0.1-1.1-0.3-1.5c-0.3-0.6-0.9-0.9-1.6-0.9c-0.7,0-1.2,0.3-1.5,0.8s-0.5,1.2-0.5,1.9
		s0.2,1.3,0.5,1.8s0.8,0.7,1.5,0.7C146.9,21,147.4,20.7,147.7,20.1z"/>
	<path class="st1" d="M150.7,12.4h1.1v5.4l2.9-2.9h1.5l-2.6,2.5l2.8,4.3h-1.5l-2.1-3.5l-0.9,0.9v2.6h-1.1L150.7,12.4L150.7,12.4z"/>
</g>
<path class="st1" d="M22,8.2v2.7c0,0-2.2-0.2-2.7,0.6C19,12,19.1,13,19.1,14.3H22c-0.2,1.2-0.4,1.8-0.6,3.1H19V26h-3.7
	c0-2.5,0-6.1,0-8.6h-1.8v-3.1h1.7c0.1-2.5,0.2-4.2,1.2-5.3c1-1.1,1.9-1,5.6-1"/>
</svg>
