<?xml version="1.0" encoding="utf-8"?>
<!-- Generator: Adobe Illustrator 19.2.1, SVG Export Plug-In . SVG Version: 6.00 Build 0)  -->
<svg version="1.1" id="Layer_1" xmlns="http://www.w3.org/2000/svg" xmlns:xlink="http://www.w3.org/1999/xlink" x="0px" y="0px"
	 width="170px" height="34px" viewBox="0 0 170 34" style="enable-background:new 0 0 170 34;" xml:space="preserve">
<style type="text/css">
	.st0{fill:#D34836;}
	.st1{fill:#FFFFFF;}
</style>
<title>Google-SignIn</title>
<rect class="st0" width="170" height="34"/>
<path class="st1" d="M42.6,18.2c0,0.5,0.1,0.9,0.4,1.3c0.5,0.7,1.3,1,2.1,0.9c0.4,0,0.8-0.1,1.3-0.2c0.6-0.2,1.1-0.7,1.1-1.4
	c0-0.4-0.1-0.8-0.5-1.1c-0.5-0.3-0.9-0.5-1.5-0.5l-1.2-0.3c-0.6-0.1-1.2-0.3-1.7-0.6c-0.6-0.4-0.9-1.1-0.9-1.8
	c0-0.8,0.3-1.5,0.8-2.1c0.7-0.6,1.5-0.9,2.4-0.8c0.9,0,1.7,0.2,2.4,0.7c0.7,0.5,1.1,1.4,1,2.3h-1.2c0-0.4-0.2-0.8-0.4-1.1
	c-0.5-0.5-1.1-0.8-1.8-0.7c-0.6-0.1-1.1,0.1-1.5,0.5c-0.3,0.3-0.5,0.7-0.5,1.1c0,0.4,0.2,0.8,0.5,1c0.5,0.2,1.1,0.4,1.6,0.5l1.3,0.3
	c0.5,0.1,1,0.3,1.4,0.6c0.6,0.5,0.9,1.2,0.9,1.9c0.1,0.9-0.3,1.7-1.1,2.2c-0.8,0.5-1.7,0.7-2.5,0.7c-1,0.1-1.9-0.3-2.7-0.9
	c-0.7-0.6-1-1.5-0.9-2.4L42.6,18.2L42.6,18.2z"/>
<path class="st1" d="M50.3,11.9h1.2v1.3h-1.2V11.9z M50.3,14.5h1.2v6.8h-1.2C50.3,21.2,50.3,14.5,50.3,14.5z"/>
<path class="st1" d="M57,14.7c0.3,0.2,0.5,0.4,0.7,0.6v-0.9h1v6.2c0,0.7-0.1,1.4-0.4,2c-0.5,1-1.6,1.5-2.7,1.4
	c-0.6,0-1.3-0.1-1.8-0.5c-0.5-0.3-0.8-0.9-0.8-1.5h1.2c0,0.3,0.2,0.5,0.3,0.7c0.9,0.7,2.2,0.4,2.9-0.5c0,0,0,0,0-0.1
	c0.2-0.6,0.3-1.3,0.2-2c-0.2,0.3-0.5,0.6-0.8,0.8c-1.1,0.5-2.3,0.3-3.2-0.5c-0.6-0.7-0.9-1.6-0.8-2.6c-0.1-1,0.2-1.9,0.8-2.7
	c0.5-0.6,1.2-1,2-1C56.1,14.3,56.6,14.4,57,14.7z M57.1,15.9c-0.3-0.4-0.8-0.6-1.3-0.6c-0.7,0-1.4,0.4-1.6,1.1
	c-0.2,0.5-0.3,1-0.3,1.5c0,0.6,0.1,1.2,0.5,1.8c0.3,0.4,0.8,0.6,1.3,0.6c0.8,0,1.4-0.4,1.7-1.1c0.2-0.5,0.3-1,0.3-1.5
	C57.7,17.1,57.5,16.5,57.1,15.9L57.1,15.9z"/>
<path class="st1" d="M60.4,14.4h1.1v1c0.3-0.4,0.6-0.7,1-0.9c0.4-0.2,0.8-0.3,1.2-0.3c0.8-0.1,1.6,0.3,2,1c0.2,0.5,0.3,1,0.3,1.6
	v4.4h-1.2v-4.3c0-0.3,0-0.7-0.2-1c-0.2-0.4-0.6-0.7-1.1-0.6c-0.2,0-0.5,0-0.7,0.1c-0.3,0.1-0.6,0.3-0.8,0.6
	c-0.2,0.2-0.3,0.4-0.4,0.7c-0.1,0.3-0.1,0.7-0.1,1v3.6h-1.1V14.4L60.4,14.4z"/>
<path class="st1" d="M71.3,11.9h1.2v1.3h-1.2V11.9z M71.3,14.5h1.2v6.8h-1.2C71.3,21.2,71.3,14.5,71.3,14.5z"/>
<path class="st1" d="M74.2,14.4h1.1v1c0.3-0.4,0.6-0.7,1-0.9c0.4-0.2,0.8-0.3,1.2-0.3c0.8-0.1,1.6,0.3,2,1c0.2,0.5,0.3,1,0.3,1.6
	v4.4h-1.2v-4.3c0-0.3,0-0.7-0.2-1c-0.2-0.4-0.6-0.7-1.1-0.6c-0.2,0-0.5,0-0.7,0.1c-0.3,0.1-0.6,0.3-0.8,0.6
	c-0.2,0.2-0.3,0.4-0.4,0.7c-0.1,0.3-0.1,0.7-0.1,1v3.6h-1.1V14.4L74.2,14.4z"/>
<path class="st1" d="M85.5,14.4l1.3,5.4l1.3-5.4h1.3l1.3,5.3l1.4-5.3h1.1l-2,6.8h-1.2L88.8,16l-1.3,5.3h-1.2l-2-6.8L85.5,14.4
	L85.5,14.4z"/>
<path class="st1" d="M94.4,11.9h1.2v1.3h-1.2V11.9z M94.4,14.5h1.2v6.8h-1.2C94.4,21.2,94.4,14.5,94.4,14.5z"/>
<path class="st1" d="M97.5,12.5h1.2v1.9h1.1v0.9h-1.1v4.4c0,0.2,0.1,0.4,0.2,0.5c0.1,0.1,0.3,0.1,0.4,0.1h0.2h0.2v0.9
	c-0.1,0-0.3,0.1-0.4,0.1h-0.5c-0.4,0.1-0.8-0.1-1.1-0.4c-0.2-0.3-0.3-0.7-0.3-1.1v-4.5h-0.9v-0.9h0.9L97.5,12.5L97.5,12.5z"/>
<path class="st1" d="M100.9,11.9h1.1v3.5c0.2-0.3,0.5-0.5,0.7-0.7c0.4-0.3,0.9-0.4,1.4-0.4c0.8-0.1,1.6,0.3,2,1
	c0.2,0.5,0.3,1,0.3,1.6v4.4h-1.2v-4.3c0-0.4,0-0.8-0.2-1.1c-0.3-0.4-0.7-0.6-1.2-0.6c-0.5,0-0.9,0.2-1.3,0.5
	c-0.5,0.5-0.7,1.2-0.6,1.8v3.6h-1.1L100.9,11.9L100.9,11.9z"/>
<path class="st1" d="M118.1,12.2c0.9,0.5,1.6,1.5,1.7,2.6h-1.3c-0.1-0.6-0.4-1.1-0.9-1.5c-0.5-0.3-1.1-0.5-1.8-0.5
	c-0.8,0-1.6,0.4-2.1,1c-0.6,0.8-0.9,1.9-0.9,2.9c0,1,0.2,1.9,0.7,2.7c0.6,0.7,1.4,1.1,2.3,1c0.7,0,1.4-0.2,2-0.7
	c0.6-0.6,0.9-1.5,0.8-2.4h-2.9v-1h4.1v5H119l-0.3-1.2c-0.3,0.4-0.7,0.7-1.1,1c-0.6,0.3-1.4,0.5-2.1,0.5c-1,0-2-0.4-2.8-1.1
	c-0.9-1-1.4-2.3-1.3-3.7c-0.1-1.4,0.4-2.7,1.3-3.8c0.8-0.9,1.9-1.4,3.1-1.3C116.6,11.7,117.4,11.8,118.1,12.2z"/>
<path class="st1" d="M126.8,15.1c0.6,0.7,1,1.6,0.9,2.6c0,1-0.2,1.9-0.8,2.7c-0.6,0.7-1.5,1.1-2.5,1.1c-0.8,0-1.7-0.3-2.2-1
	c-0.6-0.7-0.9-1.6-0.8-2.5c-0.1-1,0.3-2,0.9-2.7c0.6-0.7,1.4-1,2.3-1C125.4,14.2,126.2,14.5,126.8,15.1z M126.1,19.6
	c0.3-0.6,0.4-1.2,0.4-1.9c0-0.5-0.1-1.1-0.3-1.5c-0.3-0.6-1-1-1.6-0.9c-0.6-0.1-1.2,0.2-1.5,0.8c-0.3,0.6-0.5,1.3-0.5,1.9
	c0,0.6,0.1,1.3,0.5,1.8c0.3,0.5,0.9,0.8,1.5,0.7C125.1,20.5,125.8,20.2,126.1,19.6z"/>
<path class="st1" d="M134,15.1c0.6,0.7,1,1.6,0.9,2.6c0,1-0.2,1.9-0.8,2.7c-0.6,0.7-1.5,1.1-2.5,1.1c-0.8,0-1.7-0.3-2.2-1
	c-0.6-0.7-0.9-1.6-0.8-2.5c-0.1-1,0.3-2,0.9-2.7c0.6-0.7,1.4-1,2.3-1C132.6,14.2,133.4,14.5,134,15.1z M133.3,19.6
	c0.3-0.6,0.4-1.2,0.4-1.9c0-0.5-0.1-1.1-0.3-1.5c-0.3-0.6-1-1-1.6-0.9c-0.6,0-1.2,0.3-1.5,0.8c-0.3,0.6-0.5,1.3-0.5,1.9
	c0,0.6,0.1,1.3,0.5,1.8c0.3,0.5,0.9,0.8,1.5,0.7C132.4,20.5,133,20.2,133.3,19.6z"/>
<path class="st1" d="M140.1,14.7c0.3,0.2,0.5,0.4,0.7,0.6v-0.9h1.1v6.2c0,0.7-0.1,1.4-0.4,2c-0.5,1-1.6,1.5-2.7,1.4
	c-0.6,0-1.3-0.1-1.8-0.5c-0.5-0.4-0.8-0.9-0.8-1.5h1.2c0,0.3,0.2,0.5,0.3,0.7c0.9,0.7,2.2,0.4,2.9-0.5c0,0,0,0,0-0.1
	c0.2-0.6,0.3-1.3,0.2-2c-0.2,0.3-0.5,0.6-0.8,0.8c-1.1,0.5-2.3,0.3-3.2-0.5c-0.6-0.7-0.9-1.6-0.8-2.6c-0.1-1,0.2-1.9,0.8-2.7
	c0.5-0.6,1.2-1,2-1C139.2,14.2,139.7,14.4,140.1,14.7z M140.2,15.9c-0.3-0.4-0.8-0.6-1.3-0.6c-0.7,0-1.4,0.4-1.6,1.1
	c-0.2,0.5-0.3,1-0.3,1.5c0,0.6,0.1,1.2,0.5,1.8c0.3,0.4,0.8,0.6,1.3,0.6c0.8,0,1.4-0.4,1.7-1.1c0.2-0.5,0.3-1,0.3-1.5
	C140.8,17.1,140.6,16.5,140.2,15.9L140.2,15.9z"/>
<path class="st1" d="M143.6,11.9h1.1v9.3h-1.1V11.9z"/>
<path class="st1" d="M150.6,14.6c0.4,0.2,0.7,0.5,1,0.9c0.2,0.4,0.4,0.8,0.4,1.2c0.1,0.5,0.1,1,0.1,1.5h-4.9c0,0.6,0.2,1.2,0.5,1.7
	c0.3,0.4,0.9,0.7,1.4,0.6c0.5,0,1.1-0.2,1.4-0.6c0.2-0.2,0.3-0.5,0.4-0.8h1.1c0,0.3-0.1,0.6-0.3,0.8c-0.1,0.3-0.3,0.5-0.6,0.8
	c-0.4,0.3-0.8,0.6-1.3,0.7c-0.3,0.1-0.6,0.1-0.9,0.1c-0.8,0-1.6-0.3-2.1-0.9c-0.6-0.7-0.9-1.6-0.9-2.5c0-1,0.3-1.9,0.9-2.7
	c0.6-0.7,1.4-1,2.3-1C149.7,14.3,150.2,14.4,150.6,14.6z M151,17.3c0-0.4-0.1-0.8-0.3-1.2c-0.3-0.6-0.9-0.9-1.6-0.8
	c-0.5,0-1,0.2-1.3,0.6c-0.4,0.4-0.6,0.9-0.6,1.4L151,17.3L151,17.3z"/>
<path class="st1" d="M20.3,25.1c-2.1,0-3.7-1.4-3.7-3s1.9-2.9,4.1-2.9c0.5,0,0.9,0.1,1.4,0.2c1.2,0.8,2,1.3,2.2,2.2
	c0,0.2,0.1,0.4,0.1,0.6C24.3,23.8,23.3,25.1,20.3,25.1 M20.8,15.6c-1.4,0-2.8-1.6-3-3.5s0.7-3.3,2.1-3.3s2.8,1.6,3,3.4
	S22.3,15.6,20.8,15.6 M23.8,18.4c-0.7-0.4-1.2-1-1.5-1.7c0-0.6,0.2-0.9,1.1-1.6c0.9-0.7,1.5-1.7,1.6-2.9c0.1-1.3-0.6-2.6-1.8-3.2H25
	L26.2,8h-5.6c-2.5,0-4.9,1.9-4.9,4.1c0,2.2,1.8,4,4,4c0.1,0,0.2,0,0.2,0h0.5c-0.2,0.3-0.3,0.6-0.3,1c0,0.6,0.3,1.2,0.8,1.6h-1
	c-3.1,0-5.5,2-5.5,4s2.6,3.3,5.7,3.3c3.5,0,5.5-2,5.5-4C25.8,20.5,25.1,19.1,23.8,18.4 M31.9,15.8h-2.2v-2.2H28v2.2h-2.2v1.7H28v2.2
	h1.8v-2.2h2.2L31.9,15.8L31.9,15.8z"/>
</svg>
