<?xml version="1.0" encoding="utf-8"?>
<!-- Generator: Adobe Illustrator 19.2.1, SVG Export Plug-In . SVG Version: 6.00 Build 0)  -->
<svg version="1.1" id="Layer_1" xmlns="http://www.w3.org/2000/svg" xmlns:xlink="http://www.w3.org/1999/xlink" x="0px" y="0px"
	 width="204px" height="34px" viewBox="0 0 204 34" style="enable-background:new 0 0 204 34;" xml:space="preserve">
<style type="text/css">
	.st0{fill:#EEEEEE;}
	.st1{fill:#3777E3;}
	.st2{fill:#FFCF63;}
	.st3{fill:#11A861;}
</style>
<title>GoogleDrive</title>
<path class="st0" d="M0,0h204v34H0V0z"/>
<g id="Livello_1">
	<path class="st1" d="M13.7,26l3.5-6H31l-3.5,6C27.6,26,13.7,26,13.7,26z"/>
	<path class="st2" d="M24.1,20H31L24.1,8h-6.9L24.1,20z"/>
	<path class="st3" d="M10.3,20l3.5,6l6.9-12l-3.5-6L10.3,20z"/>
</g>
<path d="M35.2,11.7h2.1v6.2c0,0.5,0.1,1,0.3,1.5c0.3,0.6,1,0.9,1.7,0.9c0.7,0.1,1.3-0.2,1.7-0.9c0.2-0.5,0.3-1,0.3-1.5v-6.2h2.1v6.2
	c0,0.9-0.1,1.7-0.5,2.5C42.1,21.4,41,22,39.2,22c-1.7,0-2.9-0.5-3.5-1.6c-0.4-0.8-0.5-1.6-0.5-2.5C35.2,17.9,35.2,11.7,35.2,11.7z
	 M51.4,15.1c0.7,0.8,1,1.8,0.9,2.8c0.1,1.1-0.2,2.1-0.9,3c-0.6,0.7-1.4,1-2.3,1c-0.5,0-1.1-0.1-1.5-0.4c-0.2-0.2-0.5-0.4-0.6-0.7
	v3.9h-1.9V14.3h1.9v1.1c0.2-0.3,0.4-0.6,0.7-0.8c0.4-0.3,1-0.5,1.5-0.5C50,14.1,50.8,14.5,51.4,15.1z M49.9,16.5
	c-0.3-0.4-0.8-0.7-1.3-0.7c-0.7,0-1.3,0.4-1.5,1c-0.2,0.4-0.2,0.9-0.2,1.4c-0.1,0.7,0.2,1.4,0.7,1.8c0.3,0.2,0.6,0.3,1,0.3
	c0.5,0,1-0.2,1.3-0.6c0.3-0.5,0.5-1.1,0.4-1.7C50.3,17.5,50.2,16.9,49.9,16.5L49.9,16.5z M55.7,21.7h-2V11.7h2V21.7z M63.8,20.8
	c-1.6,1.6-4.1,1.6-5.7,0c-0.6-0.8-1-1.8-0.9-2.8c0-1,0.3-2,0.9-2.8c1.6-1.6,4.1-1.6,5.7,0c0.6,0.8,1,1.8,0.9,2.8
	C64.8,19,64.4,20,63.8,20.8z M62.2,19.8c0.3-0.5,0.5-1.1,0.5-1.8c0-0.6-0.1-1.2-0.5-1.7c-0.6-0.7-1.7-0.8-2.4-0.2
	c-0.1,0.1-0.1,0.1-0.2,0.2c-0.3,0.5-0.5,1.1-0.5,1.7c0,0.6,0.1,1.2,0.5,1.7c0.6,0.7,1.7,0.8,2.4,0.2C62.1,19.9,62.2,19.8,62.2,19.8z
	 M69.1,17.2c0.3,0,0.5-0.1,0.8-0.2c0.2-0.1,0.4-0.3,0.4-0.5c0-0.3-0.1-0.5-0.3-0.6c-0.3-0.1-0.6-0.2-0.9-0.1c-0.4,0-0.7,0.1-1,0.3
	c-0.2,0.2-0.2,0.4-0.3,0.7h-1.9c0-0.6,0.2-1.1,0.6-1.6c0.7-0.7,1.7-1.1,2.7-1c0.8,0,1.5,0.2,2.2,0.5c0.7,0.3,1.1,1.1,1,1.8v4.3
	c0,0.2,0,0.4,0.1,0.5c0.1,0.1,0.2,0.2,0.3,0.2v0.3h-2.2c-0.1-0.1-0.1-0.3-0.1-0.4c0-0.1,0-0.3-0.1-0.5c-0.3,0.3-0.6,0.5-0.9,0.8
	C69,21.8,68.5,22,68,22c-0.6,0-1.2-0.2-1.7-0.6c-0.5-0.4-0.7-1-0.7-1.6c-0.1-0.8,0.4-1.6,1.1-2c0.5-0.3,1.1-0.4,1.7-0.5L69.1,17.2z
	 M70.3,18.1c-0.1,0.1-0.2,0.1-0.4,0.2c-0.2,0.1-0.3,0.1-0.5,0.1l-0.4,0.1c-0.3,0-0.6,0.1-0.9,0.3c-0.3,0.2-0.5,0.5-0.5,0.8
	c0,0.3,0.1,0.5,0.3,0.7c0.2,0.1,0.4,0.2,0.7,0.2c0.4,0,0.8-0.1,1.2-0.4c0.4-0.3,0.6-0.8,0.6-1.4C70.3,18.8,70.3,18.1,70.3,18.1z
	 M77.9,14.4c0.3,0.2,0.6,0.5,0.8,0.8v-3.6h2v10.1h-1.9v-1c-0.2,0.4-0.6,0.8-1,1c-0.4,0.2-0.9,0.3-1.3,0.3c-0.9,0-1.7-0.4-2.2-1.1
	c-0.6-0.8-0.9-1.7-0.9-2.7c-0.1-1.1,0.3-2.1,0.9-3c0.6-0.7,1.4-1.1,2.3-1.1C77,14.1,77.5,14.2,77.9,14.4z M78.3,19.7
	c0.3-0.5,0.5-1,0.4-1.6c0.1-0.7-0.2-1.5-0.7-2c-0.3-0.2-0.6-0.4-1-0.4c-0.5,0-1,0.2-1.3,0.7c-0.3,0.5-0.4,1-0.4,1.6
	c0,0.6,0.1,1.2,0.4,1.6c0.3,0.4,0.7,0.6,1.2,0.6C77.6,20.3,78,20.1,78.3,19.7L78.3,19.7z M90.9,14.3H93l-2.7,7.4h-2l-2.7-7.4h2.2
	l1.6,5.5L90.9,14.3z M96.1,13.4h-2v-1.8h2V13.4z M94.1,14.3h2v7.4h-2V14.3z M101,17.2c0.3,0,0.5-0.1,0.8-0.2
	c0.2-0.1,0.4-0.3,0.4-0.5c0-0.3-0.1-0.5-0.3-0.6c-0.3-0.1-0.6-0.2-0.9-0.2c-0.4,0-0.7,0.1-1,0.3c-0.2,0.2-0.2,0.4-0.3,0.7h-1.9
	c0-0.6,0.2-1.1,0.6-1.6c0.7-0.7,1.7-1.1,2.7-1c0.8,0,1.5,0.2,2.2,0.5c0.7,0.3,1.1,1.1,1,1.8v4.3c0,0.2,0,0.4,0.1,0.5
	c0.1,0.1,0.2,0.2,0.3,0.2v0.3h-2.2c-0.1-0.1-0.1-0.3-0.1-0.4c0-0.1,0-0.3-0.1-0.5c-0.3,0.3-0.6,0.5-0.9,0.8
	c-0.4,0.2-0.9,0.4-1.4,0.4c-0.6,0-1.2-0.2-1.7-0.6c-0.5-0.4-0.7-1-0.7-1.6c-0.1-0.8,0.4-1.6,1.1-2c0.5-0.3,1.1-0.4,1.7-0.5L101,17.2
	z M102.2,18.1c-0.1,0.1-0.2,0.1-0.4,0.2c-0.2,0.1-0.3,0.1-0.5,0.1l-0.4,0.1c-0.3,0-0.6,0.1-0.9,0.3c-0.3,0.2-0.5,0.5-0.5,0.8
	c0,0.3,0.1,0.5,0.3,0.7c0.2,0.1,0.4,0.2,0.7,0.2c0.4,0,0.8-0.1,1.2-0.4c0.4-0.3,0.6-0.8,0.6-1.4C102.2,18.8,102.2,18.1,102.2,18.1z
	 M116.6,14.8c-0.1-0.6-0.6-1.2-1.2-1.4c-0.4-0.2-0.8-0.2-1.2-0.2c-0.8,0-1.5,0.3-2,0.9c-0.6,0.8-0.9,1.8-0.8,2.8
	c-0.1,1,0.2,1.9,0.8,2.6c0.5,0.5,1.2,0.8,1.9,0.8c0.6,0,1.2-0.2,1.7-0.6c0.5-0.4,0.7-1,0.8-1.6h-2.3v-1.7h4.2v5.4h-1.4l-0.2-1.3
	c-0.3,0.4-0.7,0.7-1.1,1c-0.6,0.4-1.3,0.5-2,0.5c-1.2,0-2.4-0.5-3.3-1.4c-0.9-1-1.4-2.4-1.3-3.8c-0.1-1.4,0.4-2.8,1.3-3.9
	c0.9-1,2.2-1.5,3.6-1.5c1.1,0,2.2,0.3,3.1,1c0.8,0.6,1.2,1.5,1.3,2.4L116.6,14.8L116.6,14.8z M126.8,20.8c-1.6,1.6-4.1,1.6-5.7,0
	c-0.6-0.8-1-1.8-0.9-2.8c0-1,0.3-2,0.9-2.8c1.6-1.6,4.1-1.6,5.7,0c0.6,0.8,1,1.8,0.9,2.8C127.8,19,127.4,20,126.8,20.8z M125.2,19.8
	c0.3-0.5,0.5-1.1,0.5-1.8c0-0.6-0.1-1.2-0.5-1.7c-0.6-0.7-1.7-0.8-2.4-0.2c-0.1,0.1-0.1,0.1-0.2,0.2c-0.3,0.5-0.5,1.1-0.5,1.7
	c0,0.6,0.1,1.2,0.5,1.7c0.6,0.7,1.7,0.8,2.4,0.2C125.1,19.9,125.2,19.8,125.2,19.8z M135.4,20.8c-1.6,1.6-4.1,1.6-5.7,0
	c-0.6-0.8-1-1.8-0.9-2.8c0-1,0.3-2,0.9-2.8c1.6-1.6,4.1-1.6,5.7,0c0.6,0.8,1,1.8,0.9,2.8C136.3,19,136,20,135.4,20.8z M133.8,19.8
	c0.3-0.5,0.5-1.1,0.5-1.7c0-0.6-0.1-1.2-0.5-1.7c-0.6-0.7-1.7-0.8-2.4-0.2c-0.1,0.1-0.1,0.1-0.2,0.2c-0.3,0.5-0.5,1.1-0.5,1.7
	c0,0.6,0.1,1.2,0.5,1.7c0.6,0.7,1.7,0.8,2.4,0.2C133.7,19.9,133.7,19.8,133.8,19.8z M141.4,14.3c0.5,0.2,0.9,0.6,1.1,1.1v-1.1h1.9
	v7.1c0,0.8-0.1,1.5-0.5,2.2c-0.6,0.8-1.6,1.3-3.2,1.3c-0.8,0-1.6-0.2-2.3-0.6c-0.6-0.4-1-1-1-1.7h2.1c0,0.2,0.1,0.4,0.3,0.5
	c0.3,0.2,0.7,0.3,1.1,0.3c0.6,0.1,1.1-0.2,1.4-0.7c0.2-0.5,0.3-1,0.2-1.5v-0.5c-0.2,0.3-0.4,0.5-0.6,0.7c-0.4,0.3-1,0.5-1.5,0.4
	c-0.9,0-1.7-0.3-2.3-1c-0.6-0.8-0.9-1.7-0.9-2.7c0-1,0.3-2,0.8-2.8c0.5-0.7,1.4-1.2,2.3-1.1C140.7,14.1,141.1,14.2,141.4,14.3
	L141.4,14.3z M142,19.6c0.4-0.5,0.5-1.1,0.5-1.6c0-0.6-0.1-1.1-0.4-1.6c-0.3-0.4-0.7-0.6-1.2-0.6c-0.6,0-1.2,0.4-1.4,1
	c-0.1,0.4-0.2,0.8-0.2,1.3c0,0.4,0.1,0.8,0.2,1.2c0.2,0.6,0.8,1,1.4,0.9C141.3,20.2,141.7,20,142,19.6z M148.2,21.7h-1.9V11.7h1.9
	V21.7z M155,14.4c0.5,0.2,1,0.6,1.3,1.1c0.3,0.5,0.5,1,0.6,1.5c0.1,0.5,0.1,1,0.1,1.5h-5.4c0,0.6,0.3,1.2,0.8,1.6
	c0.3,0.2,0.7,0.3,1.1,0.3c0.6,0,1.2-0.3,1.5-0.9h2c-0.1,0.5-0.3,1-0.7,1.4c-0.7,0.8-1.8,1.1-2.8,1.1c-1,0-1.9-0.3-2.6-0.9
	c-0.8-0.8-1.2-1.9-1.1-3c-0.1-1.1,0.3-2.2,1-3c0.7-0.7,1.7-1,2.7-1C153.8,14.1,154.4,14.2,155,14.4z M152.1,16.1
	c-0.3,0.3-0.5,0.7-0.5,1.1h3.4c0-0.4-0.2-0.9-0.5-1.2c-0.3-0.3-0.7-0.4-1.2-0.4C152.8,15.7,152.4,15.8,152.1,16.1L152.1,16.1z
	 M167.9,11.9c0.7,0.2,1.3,0.7,1.7,1.3c0.3,0.5,0.6,1,0.7,1.6c0.1,0.5,0.2,1.1,0.2,1.7c0,1.2-0.2,2.4-0.8,3.4c-0.7,1.2-2,2-3.4,1.9
	H162V11.7h4.3C166.9,11.7,167.4,11.7,167.9,11.9z M164,13.4V20h2c0.9,0,1.7-0.6,2-1.5c0.2-0.6,0.3-1.3,0.3-1.9
	c0-0.8-0.1-1.6-0.5-2.4c-0.4-0.6-1.2-0.9-1.9-0.8L164,13.4L164,13.4z M176.1,14.1h0.2v2h-0.6c-0.6-0.1-1.3,0.2-1.6,0.8
	c-0.2,0.4-0.3,0.9-0.2,1.3v3.6h-2v-7.5h1.9v1.3c0.2-0.4,0.5-0.7,0.8-1c0.4-0.3,0.9-0.5,1.4-0.5L176.1,14.1L176.1,14.1z M179.4,13.4
	h-2v-1.8h2V13.4z M177.4,14.3h2v7.4h-2V14.3z M185.9,14.3h2.1l-2.7,7.4h-2.1l-2.7-7.4h2.2l1.6,5.5L185.9,14.3z M193.9,14.4
	c0.5,0.2,1,0.6,1.3,1.1c0.3,0.5,0.5,1,0.6,1.5c0.1,0.5,0.1,1,0.1,1.5h-5.4c0,0.6,0.3,1.2,0.8,1.6c0.3,0.2,0.7,0.3,1.1,0.3
	c0.6,0,1.2-0.3,1.5-0.9h2c-0.1,0.5-0.4,1-0.7,1.3c-0.7,0.8-1.8,1.1-2.8,1.1c-1,0-1.9-0.3-2.6-0.9c-0.8-0.8-1.2-1.9-1.1-3
	c-0.1-1.1,0.3-2.2,1-3c0.7-0.7,1.7-1,2.7-1C192.7,14.1,193.3,14.2,193.9,14.4L193.9,14.4z M191,16.1c-0.3,0.3-0.5,0.7-0.5,1.1h3.4
	c0-0.4-0.2-0.9-0.5-1.2c-0.3-0.3-0.7-0.4-1.2-0.4C191.7,15.7,191.3,15.8,191,16.1L191,16.1z"/>
</svg>
