<?xml version="1.0" encoding="utf-8"?>
<!-- Generator: Adobe Illustrator 19.2.1, SVG Export Plug-In . SVG Version: 6.00 Build 0)  -->
<svg version="1.1" id="Layer_1" xmlns="http://www.w3.org/2000/svg" xmlns:xlink="http://www.w3.org/1999/xlink" x="0px" y="0px"
	 width="204px" height="34px" viewBox="0 0 204 34" style="enable-background:new 0 0 204 34;" xml:space="preserve">
<style type="text/css">
	.st0{fill:#008BD3;}
	.st1{fill:#FFFFFF;}
	.st2{fill:#FDFEFE;}
	.st3{fill:#34C3E8;}
</style>
<title>dropbox</title>
<path class="st0" d="M0,0h204v34H0V0z"/>
<path class="st1" d="M36.6,11.7h2.1v6.2c0,0.5,0,1,0.2,1.5c0.3,0.6,1,0.9,1.7,0.9c0.7,0.1,1.3-0.2,1.7-0.9c0.2-0.5,0.3-1,0.3-1.5
	v-6.2h2.1v6.2c0,0.9-0.1,1.7-0.5,2.5c-0.6,1.1-1.8,1.6-3.5,1.6s-2.9-0.5-3.5-1.6c-0.4-0.8-0.5-1.6-0.5-2.5
	C36.6,17.9,36.6,11.7,36.6,11.7z M52.8,15.1c0.7,0.8,1,1.8,0.9,2.8c0.1,1.1-0.2,2.1-0.9,3c-0.6,0.7-1.4,1-2.3,1
	c-0.5,0-1.1-0.1-1.5-0.4c-0.2-0.2-0.5-0.4-0.6-0.7v3.9h-1.9V14.3h1.9v1.1c0.2-0.3,0.4-0.6,0.7-0.8c0.4-0.3,1-0.5,1.5-0.5
	C51.5,14.1,52.3,14.5,52.8,15.1z M51.3,16.5c-0.3-0.4-0.8-0.7-1.3-0.7c-0.7,0-1.3,0.4-1.5,1c-0.2,0.4-0.2,0.9-0.2,1.4
	c-0.1,0.7,0.2,1.4,0.7,1.8c0.3,0.2,0.6,0.3,1,0.3c0.5,0,1-0.2,1.3-0.6c0.3-0.5,0.5-1.1,0.4-1.7C51.8,17.5,51.6,16.9,51.3,16.5
	L51.3,16.5z M57.1,21.7h-2V11.7h2V21.7z M65.2,20.8c-1.6,1.6-4.1,1.6-5.7,0c-0.6-0.8-1-1.8-0.9-2.8c0-1,0.3-2,0.9-2.8
	c1.6-1.6,4.1-1.6,5.7,0c0.6,0.8,1,1.8,0.9,2.8C66.2,19,65.9,20,65.2,20.8z M63.7,19.8c0.3-0.5,0.5-1.1,0.5-1.8
	c0-0.6-0.1-1.2-0.5-1.7c-0.6-0.7-1.7-0.8-2.4-0.2c-0.1,0.1-0.1,0.1-0.2,0.2c-0.3,0.5-0.5,1.1-0.5,1.7c0,0.6,0.1,1.2,0.5,1.7
	c0.6,0.7,1.7,0.8,2.4,0.2C63.6,19.9,63.6,19.8,63.7,19.8z M70.5,17.2c0.3,0,0.5-0.1,0.8-0.2c0.2-0.1,0.4-0.3,0.4-0.5
	c0-0.3-0.1-0.5-0.3-0.6c-0.3-0.1-0.6-0.2-0.9-0.2c-0.4,0-0.7,0.1-1,0.3c-0.2,0.2-0.2,0.4-0.3,0.7h-1.9c0-0.6,0.2-1.1,0.6-1.6
	c0.7-0.7,1.7-1.1,2.7-1c0.8,0,1.5,0.2,2.2,0.5c0.7,0.3,1.1,1.1,1,1.8v4.3c0,0.2,0,0.4,0.1,0.5c0.1,0.1,0.2,0.2,0.3,0.2v0.3H72
	c-0.1-0.1-0.1-0.3-0.1-0.4c0-0.1,0-0.3-0.1-0.5c-0.3,0.3-0.6,0.5-0.9,0.8c-0.4,0.2-0.9,0.4-1.4,0.4c-0.6,0-1.2-0.2-1.7-0.6
	c-0.5-0.4-0.7-1-0.7-1.6c-0.1-0.8,0.4-1.6,1.1-2c0.5-0.3,1.1-0.4,1.7-0.5L70.5,17.2z M71.7,18.1c-0.1,0.1-0.2,0.1-0.4,0.2
	c-0.2,0.1-0.3,0.1-0.5,0.1l-0.4,0.1c-0.3,0-0.6,0.1-0.9,0.3c-0.3,0.2-0.5,0.5-0.5,0.8c0,0.3,0.1,0.5,0.3,0.7
	c0.2,0.1,0.4,0.2,0.7,0.2c0.4,0,0.8-0.1,1.2-0.4c0.4-0.3,0.6-0.8,0.6-1.4C71.7,18.8,71.7,18.1,71.7,18.1z M79.3,14.4
	c0.3,0.2,0.6,0.5,0.8,0.8v-3.6h2v10.1h-1.9v-1c-0.2,0.4-0.6,0.8-1,1C78.9,21.9,78.4,22,78,22c-0.9,0-1.7-0.4-2.2-1.1
	c-0.6-0.8-0.9-1.7-0.9-2.7c-0.1-1.1,0.3-2.1,0.9-3c0.6-0.7,1.4-1.1,2.3-1.1C78.5,14.1,79,14.2,79.3,14.4z M79.8,19.7
	c0.3-0.5,0.5-1,0.4-1.6c0.1-0.7-0.2-1.5-0.7-2c-0.3-0.2-0.6-0.4-1-0.4c-0.5,0-1,0.2-1.3,0.7c-0.3,0.5-0.4,1-0.4,1.6
	c0,0.6,0.1,1.2,0.4,1.6c0.3,0.4,0.7,0.6,1.2,0.6C79,20.3,79.5,20.1,79.8,19.7L79.8,19.7z M92.4,14.3h2.1l-2.7,7.4h-2.1l-2.7-7.4h2.2
	l1.6,5.5L92.4,14.3z M97.6,13.4h-2v-1.8h2V13.4z M95.6,14.3h2v7.4h-2V14.3z M102.4,17.2c0.3,0,0.5-0.1,0.8-0.2
	c0.2-0.1,0.4-0.3,0.4-0.5c0-0.3-0.1-0.5-0.3-0.6c-0.3-0.1-0.6-0.2-0.9-0.2c-0.4,0-0.7,0.1-1,0.3c-0.2,0.2-0.2,0.4-0.3,0.7h-1.9
	c0-0.6,0.2-1.1,0.6-1.6c0.7-0.7,1.7-1.1,2.7-1c0.8,0,1.5,0.2,2.2,0.5c0.7,0.3,1.1,1.1,1,1.8v4.3c0,0.2,0,0.4,0.1,0.5
	c0.1,0.1,0.2,0.2,0.3,0.2v0.3h-2.1c-0.1-0.1-0.1-0.3-0.1-0.4c0-0.1,0-0.3-0.1-0.5c-0.3,0.3-0.6,0.5-0.9,0.8
	c-0.4,0.2-0.9,0.4-1.4,0.4c-0.6,0-1.2-0.2-1.7-0.6c-0.5-0.4-0.7-1-0.7-1.6c-0.1-0.8,0.4-1.6,1.1-2c0.5-0.3,1.1-0.4,1.7-0.5
	L102.4,17.2z M103.6,18.1c-0.1,0.1-0.2,0.1-0.4,0.2c-0.2,0.1-0.3,0.1-0.5,0.1l-0.4,0.1c-0.3,0-0.6,0.1-0.9,0.3
	c-0.3,0.2-0.5,0.5-0.5,0.8c0,0.3,0.1,0.5,0.3,0.7c0.2,0.1,0.4,0.2,0.7,0.2c0.4,0,0.8-0.1,1.2-0.4c0.4-0.3,0.6-0.8,0.6-1.4
	C103.6,18.8,103.6,18.1,103.6,18.1z M117.2,11.9c0.7,0.2,1.3,0.7,1.7,1.3c0.3,0.5,0.6,1,0.7,1.6c0.1,0.5,0.2,1.1,0.2,1.7
	c0,1.2-0.2,2.4-0.8,3.4c-0.7,1.2-2,2-3.4,1.9h-4.3V11.7h4.3C116.2,11.7,116.7,11.7,117.2,11.9z M113.4,13.4V20h1.9
	c0.9,0,1.8-0.6,2.1-1.5c0.2-0.6,0.3-1.3,0.3-1.9c0-0.8-0.1-1.6-0.5-2.4c-0.4-0.6-1.2-0.9-1.9-0.8L113.4,13.4L113.4,13.4z
	 M125.4,14.1h0.2v2H125c-0.6-0.1-1.3,0.2-1.6,0.8c-0.2,0.4-0.3,0.9-0.2,1.3v3.6h-2v-7.5h1.9v1.3c0.2-0.4,0.5-0.7,0.8-1
	c0.4-0.3,0.9-0.5,1.4-0.5L125.4,14.1L125.4,14.1z M132.9,20.8c-1.6,1.6-4.1,1.6-5.7,0c-0.6-0.8-1-1.8-0.9-2.8c0-1,0.3-2,0.9-2.8
	c1.6-1.6,4.1-1.6,5.7,0c0.6,0.8,1,1.8,0.9,2.8C133.9,19,133.6,20,132.9,20.8z M131.4,19.8c0.3-0.5,0.5-1.1,0.5-1.7
	c0-0.6-0.1-1.2-0.5-1.7c-0.6-0.7-1.7-0.8-2.4-0.2c-0.1,0.1-0.1,0.1-0.2,0.2c-0.3,0.5-0.5,1.1-0.5,1.7c0,0.6,0.1,1.2,0.5,1.7
	c0.6,0.7,1.7,0.8,2.4,0.2C131.2,19.9,131.3,19.8,131.4,19.8z M141.5,15.1c0.7,0.8,1,1.8,0.9,2.8c0.1,1.1-0.2,2.1-0.9,3
	c-0.6,0.7-1.4,1-2.3,1c-0.5,0-1.1-0.1-1.5-0.4c-0.2-0.2-0.5-0.4-0.6-0.7v3.9h-1.9V14.3h1.9v1.1c0.2-0.3,0.4-0.6,0.7-0.8
	c0.4-0.3,1-0.5,1.6-0.5C140.2,14.1,141,14.5,141.5,15.1z M140,16.5c-0.3-0.4-0.8-0.7-1.3-0.7c-0.7,0-1.3,0.4-1.5,1
	c-0.2,0.4-0.2,0.9-0.2,1.4c-0.1,0.7,0.2,1.4,0.7,1.8c0.3,0.2,0.6,0.3,1,0.3c0.5,0,1-0.2,1.3-0.6c0.3-0.5,0.5-1.1,0.4-1.7
	C140.4,17.5,140.3,16.9,140,16.5L140,16.5z M150.2,15.2c0.6,0.8,0.9,1.8,0.8,2.7c0,1-0.2,2-0.8,2.9c-0.9,1.1-2.5,1.5-3.8,0.8
	c-0.3-0.2-0.5-0.5-0.7-0.8v0.9h-1.9V11.7h1.9v3.6c0.2-0.3,0.5-0.6,0.8-0.8c0.4-0.2,0.9-0.4,1.4-0.3
	C148.8,14.1,149.6,14.5,150.2,15.2L150.2,15.2z M148.5,19.7c0.3-0.5,0.4-1,0.4-1.6c0-0.4-0.1-0.9-0.2-1.3c-0.2-0.6-0.8-1-1.4-1
	c-0.7,0-1.3,0.4-1.5,1c-0.2,0.4-0.2,0.9-0.2,1.3c0,0.6,0.1,1.1,0.4,1.6c0.3,0.4,0.8,0.7,1.3,0.6C147.8,20.4,148.3,20.1,148.5,19.7
	L148.5,19.7z M158.6,20.8c-1.6,1.6-4.1,1.6-5.7,0c-0.6-0.8-1-1.8-0.9-2.8c0-1,0.3-2,0.9-2.8c1.6-1.6,4.1-1.6,5.7,0
	c0.6,0.8,1,1.8,0.9,2.8C159.6,19,159.2,20,158.6,20.8z M157,19.8c0.3-0.5,0.5-1.1,0.5-1.7c0-0.6-0.1-1.2-0.5-1.7
	c-0.6-0.7-1.7-0.8-2.4-0.2c-0.1,0.1-0.1,0.1-0.2,0.2c-0.3,0.5-0.5,1.1-0.5,1.7c0,0.6,0.1,1.2,0.5,1.7c0.6,0.7,1.7,0.8,2.4,0.2
	C156.9,19.9,156.9,19.8,157,19.8z M160.2,21.7l2.6-3.7l-2.4-3.7h2.4l1.3,2.2l1.2-2.2h2.3l-2.5,3.6l2.5,3.8h-2.4l-1.3-2.2l-1.3,2.2
	H160.2L160.2,21.7z"/>
<g id="_3BSyst.tif">
	<path class="st2" d="M26.7,14.9l-0.2-0.1l-2.4-1.5l-3.3-2h-0.1c-0.1-0.1-0.1-0.1,0-0.2l1.5-1.2l2.1-1.8c0.1-0.1,0.2-0.1,0.3,0
		c0,0,0,0,0,0l4.8,2.9l0.9,0.6c0.2,0.1,0.2,0.2,0,0.3l-2,1.6L26.7,14.9L26.7,14.9z M14.1,14.9l-0.1-0.1l-1.8-1.5l-1.7-1.4
		c-0.1-0.1-0.1-0.1,0-0.2l1.7-1.1L14,9.5l2.2-1.4c0.1-0.1,0.2-0.1,0.3,0l2.9,2.4L20,11c0.1,0.1,0.1,0.1,0,0.2l-2.7,1.6l-3.1,1.9
		L14.1,14.9z M30.2,18.4c0,0-0.1,0.1-0.1,0.1l-1.4,0.9l-1.7,1l-2.4,1.4c-0.2,0.1-0.2,0.1-0.4,0L22.1,20l-1-0.9
		C21,19,21,19,21.1,18.9l2.4-1.5l2.4-1.4l0.7-0.4c0.1-0.1,0.2-0.1,0.2,0l1.3,1.1l2,1.7L30.2,18.4z M14,15.5l0.1,0.1l2.1,1.3l1.6,1
		l1.6,1c0.2,0.1,0.2,0.1,0,0.3l-2.4,2.1l-0.7,0.6c-0.1,0.1-0.2,0.1-0.3,0l-3-1.8l-2.5-1.5c-0.1-0.1-0.1-0.1,0-0.2l1.3-1.1l1.2-1
		L14,15.5C14,15.5,14,15.5,14,15.5z M20.6,22.6v-3.2c0,0,0.1-0.1,0.1-0.1l0.5,0.4c1,0.8,2,1.7,3,2.5c0.1,0.1,0.4,0.1,0.5,0
		c0.5-0.3,1-0.5,1.5-0.8c0.1-0.1,0.2,0,0.2,0.1v0.7c0,0.1-0.1,0.2-0.1,0.3l-4.6,2.8l-0.9,0.5c-0.1,0-0.1,0-0.2,0.1
		c0-0.1,0-0.1,0-0.2C20.6,24.7,20.6,23.7,20.6,22.6z M14.3,21.5c0.1-0.1,0.1,0,0.2,0l1,0.5c0.2,0.1,0.5,0.3,0.7,0.4
		c0.1,0,0.1,0,0.2,0l1.2-1l1.3-1l1.1-0.9c0.1,0,0.1-0.1,0.2-0.1c0,0.1,0,0.1,0,0.2V26c-0.1,0-0.1,0-0.2-0.1l-2.2-1.4l-3.3-2
		c-0.1,0-0.1-0.1-0.2-0.1L14.3,21.5L14.3,21.5z"/>
	<path class="st3" d="M14.3,21.5v1v-0.6V21.5z"/>
</g>
</svg>
