<?xml version="1.0" encoding="utf-8"?>
<!-- Generator: Adobe Illustrator 19.2.1, SVG Export Plug-In . SVG Version: 6.00 Build 0)  -->
<svg version="1.1" id="Layer_1" xmlns="http://www.w3.org/2000/svg" xmlns:xlink="http://www.w3.org/1999/xlink" x="0px" y="0px"
	 width="204px" height="34px" viewBox="0 0 204 34" style="enable-background:new 0 0 204 34;" xml:space="preserve">
<style type="text/css">
	.st0{fill:#064FB5;}
	.st1{fill:#FFFFFF;}
</style>
<title>OneDrive</title>
<path class="st0" d="M0,0h204v34H0V0z"/>
<path class="st1" d="M36.8,11.5H39v6.2c0,0.5,0.1,1,0.3,1.5c0.3,0.6,1,0.9,1.7,0.9c0.7,0.1,1.3-0.2,1.7-0.9c0.2-0.5,0.3-1,0.3-1.5
	v-6.2h2.1v6.2c0,0.9-0.1,1.7-0.5,2.5c-0.6,1.1-1.8,1.6-3.5,1.6s-2.9-0.5-3.5-1.6c-0.4-0.8-0.5-1.6-0.5-2.5L36.8,11.5L36.8,11.5z
	 M53,14.9c0.7,0.8,1,1.8,0.9,2.8c0.1,1.1-0.2,2.1-0.9,3c-0.6,0.7-1.4,1-2.3,1c-0.5,0-1.1-0.1-1.5-0.4c-0.2-0.2-0.5-0.4-0.6-0.7v3.9
	h-1.9V14.1h1.9v1.1c0.2-0.3,0.4-0.6,0.7-0.8c0.4-0.3,1-0.5,1.6-0.5C51.6,13.9,52.4,14.3,53,14.9z M51.5,16.3
	c-0.3-0.4-0.8-0.7-1.3-0.7c-0.7,0-1.3,0.4-1.5,1c-0.1,0.4-0.2,0.9-0.2,1.3c-0.1,0.7,0.2,1.4,0.7,1.8c0.3,0.2,0.6,0.3,1,0.3
	c0.5,0,1-0.2,1.3-0.6c0.3-0.5,0.5-1.1,0.4-1.7C52,17.3,51.8,16.8,51.5,16.3L51.5,16.3z M57.3,21.6h-2V11.5h2V21.6z M65.4,20.7
	c-1.6,1.6-4.1,1.6-5.7,0c-0.6-0.8-1-1.8-0.9-2.8c0-1,0.3-2,0.9-2.8c1.6-1.6,4.1-1.6,5.7,0c0.6,0.8,1,1.8,0.9,2.8
	C66.4,18.9,66.1,19.9,65.4,20.7z M63.9,19.6c0.3-0.5,0.5-1.1,0.5-1.7c0-0.6-0.1-1.2-0.5-1.7c-0.6-0.7-1.7-0.8-2.4-0.2
	c-0.1,0.1-0.1,0.1-0.2,0.2c-0.3,0.5-0.5,1.1-0.5,1.7c0,0.6,0.1,1.2,0.5,1.7c0.6,0.7,1.7,0.8,2.4,0.2C63.7,19.7,63.8,19.7,63.9,19.6
	L63.9,19.6z M70.7,17c0.3,0,0.5-0.1,0.8-0.2c0.2-0.1,0.4-0.3,0.4-0.5c0-0.3-0.1-0.5-0.3-0.6c-0.3-0.1-0.6-0.2-0.9-0.2
	c-0.4,0-0.7,0.1-1,0.3c-0.2,0.2-0.2,0.4-0.3,0.7h-1.9c0-0.6,0.2-1.1,0.5-1.6c0.7-0.7,1.7-1.1,2.7-1c0.8,0,1.5,0.2,2.2,0.5
	c0.7,0.3,1.1,1.1,1,1.8v4.3c0,0.2,0,0.4,0.1,0.5c0.1,0.1,0.2,0.2,0.3,0.2v0.3h-2.1c-0.1-0.1-0.1-0.3-0.1-0.4c0-0.1,0-0.3-0.1-0.5
	c-0.3,0.3-0.6,0.5-0.9,0.8c-0.4,0.2-0.9,0.4-1.4,0.4c-0.6,0-1.2-0.2-1.7-0.6c-0.5-0.4-0.7-1-0.7-1.6c-0.1-0.8,0.4-1.6,1.1-2
	c0.5-0.3,1.1-0.4,1.7-0.5L70.7,17z M71.9,17.9c-0.1,0.1-0.2,0.1-0.4,0.2c-0.2,0.1-0.3,0.1-0.5,0.1l-0.4,0.1c-0.3,0-0.6,0.1-0.9,0.3
	c-0.3,0.2-0.5,0.5-0.5,0.8c0,0.3,0.1,0.5,0.3,0.7c0.2,0.1,0.4,0.2,0.7,0.2c0.4,0,0.8-0.1,1.2-0.4c0.4-0.3,0.6-0.8,0.6-1.4L71.9,17.9
	L71.9,17.9z M79.5,14.2c0.3,0.2,0.6,0.5,0.8,0.8v-3.6h2v10.1h-1.9v-1c-0.2,0.4-0.6,0.8-1,1c-0.4,0.2-0.9,0.3-1.3,0.3
	c-0.8,0-1.6-0.5-2.1-1.1C75.4,20,75,19,75.1,18c-0.1-1.1,0.3-2.1,0.9-3c0.6-0.7,1.4-1.1,2.3-1.1C78.7,13.9,79.1,14,79.5,14.2
	L79.5,14.2z M80,19.5c0.3-0.5,0.4-1,0.4-1.5c0.1-0.7-0.2-1.5-0.7-2c-0.3-0.2-0.6-0.4-1-0.4c-0.5,0-1,0.2-1.3,0.7
	c-0.3,0.5-0.4,1-0.4,1.6c0,0.6,0.1,1.2,0.4,1.6c0.3,0.4,0.7,0.6,1.2,0.6C79.2,20.2,79.7,20,80,19.5z M92.6,14.1h2.1L92,21.6h-2.1
	l-2.7-7.4h2.2l1.6,5.5L92.6,14.1z M97.8,13.2h-2v-1.8h2V13.2z M95.8,14.1h2v7.4h-2V14.1z M102.6,17c0.3,0,0.5-0.1,0.8-0.2
	c0.2-0.1,0.4-0.3,0.4-0.5c0-0.3-0.1-0.5-0.3-0.6c-0.3-0.1-0.6-0.2-0.9-0.2c-0.4,0-0.7,0.1-1,0.3c-0.2,0.2-0.2,0.4-0.3,0.7h-1.9
	c0-0.6,0.2-1.1,0.6-1.6c0.7-0.7,1.7-1.1,2.7-1c0.8,0,1.5,0.2,2.2,0.5c0.7,0.3,1.1,1.1,1,1.8v4.3c0,0.2,0,0.4,0.1,0.5
	c0.1,0.1,0.2,0.2,0.3,0.2v0.3H104c-0.1-0.1-0.1-0.3-0.1-0.4c0-0.1,0-0.3-0.1-0.5c-0.3,0.3-0.6,0.5-0.9,0.8c-0.4,0.2-0.9,0.4-1.4,0.4
	c-0.6,0-1.2-0.2-1.7-0.6c-0.5-0.4-0.7-1-0.7-1.6c-0.1-0.8,0.4-1.6,1.1-2c0.5-0.3,1.1-0.4,1.7-0.5L102.6,17z M103.8,17.9
	c-0.1,0.1-0.2,0.1-0.4,0.2c-0.2,0.1-0.3,0.1-0.5,0.1l-0.4,0.1c-0.3,0-0.6,0.1-0.9,0.3c-0.3,0.2-0.5,0.5-0.5,0.8
	c0,0.3,0.1,0.5,0.3,0.7c0.2,0.1,0.4,0.2,0.7,0.2c0.4,0,0.8-0.1,1.2-0.4c0.4-0.3,0.6-0.8,0.6-1.4V17.9L103.8,17.9z M119.3,20.7
	c-1.9,1.6-4.7,1.6-6.6,0c-1.1-1.1-1.6-2.6-1.5-4.2c-0.1-1.5,0.4-3.1,1.5-4.2c1.9-1.6,4.7-1.6,6.6,0c1.1,1.1,1.6,2.6,1.5,4.2
	C120.9,18,120.3,19.6,119.3,20.7z M117.9,19.1c0.5-0.8,0.8-1.7,0.7-2.6c0.1-0.9-0.2-1.9-0.7-2.6c-0.5-0.6-1.2-1-2-0.9
	c-0.8,0-1.5,0.3-2,0.9c-0.5,0.8-0.8,1.7-0.8,2.6c-0.1,0.9,0.2,1.9,0.8,2.6c0.5,0.6,1.2,1,2,0.9C116.7,20.1,117.5,19.8,117.9,19.1z
	 M128.2,14.5c0.5,0.5,0.8,1.3,0.7,2v5h-2V17c0-0.3,0-0.6-0.2-0.9c-0.2-0.4-0.6-0.6-1.1-0.6c-0.6,0-1.1,0.3-1.3,0.8
	c-0.1,0.4-0.2,0.7-0.2,1.1v4h-1.9v-7.4h1.9v1.1c0.2-0.3,0.4-0.6,0.7-0.8c0.4-0.3,1-0.5,1.5-0.4C127,13.9,127.7,14.1,128.2,14.5z
	 M135.6,14.3c0.5,0.2,1,0.6,1.3,1.1c0.3,0.5,0.5,1,0.6,1.5c0.1,0.5,0.1,1,0.1,1.5h-5.4c0,0.6,0.3,1.2,0.8,1.6
	c0.3,0.2,0.7,0.3,1.1,0.3c0.6,0,1.2-0.3,1.5-0.9h2c-0.1,0.5-0.3,1-0.7,1.4c-0.7,0.8-1.8,1.1-2.8,1.1c-1,0-1.9-0.3-2.6-0.9
	c-0.8-0.8-1.2-1.9-1.1-3c-0.1-1.1,0.3-2.2,1-3c0.7-0.7,1.7-1,2.7-1C134.5,13.9,135.1,14,135.6,14.3z M132.7,16
	c-0.3,0.3-0.5,0.7-0.5,1.1h3.4c0-0.4-0.2-0.9-0.5-1.2c-0.3-0.3-0.7-0.4-1.2-0.4C133.5,15.5,133,15.7,132.7,16L132.7,16z M144.6,11.7
	c0.7,0.2,1.3,0.7,1.7,1.3c0.3,0.5,0.6,1,0.7,1.6c0.1,0.5,0.2,1.1,0.2,1.7c0,1.2-0.2,2.4-0.8,3.4c-0.7,1.2-2,2-3.4,1.9h-4.3V11.5h4.3
	C143.6,11.5,144.1,11.6,144.6,11.7z M140.8,13.2v6.6h1.9c0.9,0,1.8-0.6,2.1-1.5c0.2-0.6,0.3-1.3,0.3-1.9c0-0.8-0.1-1.6-0.5-2.4
	c-0.4-0.6-1.2-0.9-1.9-0.8L140.8,13.2L140.8,13.2z M152.8,13.9h0.2v2h-0.6c-0.6-0.1-1.3,0.2-1.6,0.8c-0.2,0.4-0.3,0.9-0.2,1.3v3.6
	h-2v-7.5h1.9v1.3c0.2-0.4,0.5-0.7,0.8-1c0.4-0.3,0.9-0.5,1.4-0.5L152.8,13.9L152.8,13.9z M156.1,13.2h-2v-1.8h2V13.2z M154.1,14.1h2
	v7.4h-2V14.1z M162.6,14.1h2.1l-2.7,7.4h-2l-2.7-7.4h2.2l1.6,5.5L162.6,14.1z M170.7,14.3c0.5,0.2,1,0.6,1.3,1.1
	c0.3,0.5,0.5,1,0.6,1.5c0.1,0.5,0.1,1,0.1,1.5h-5.4c0,0.6,0.3,1.3,0.8,1.6c0.3,0.2,0.7,0.3,1.1,0.3c0.6,0,1.2-0.3,1.5-0.9h2
	c-0.1,0.5-0.3,1-0.7,1.4c-0.7,0.8-1.8,1.1-2.8,1.1c-1,0-1.9-0.3-2.6-0.9c-0.8-0.8-1.2-1.9-1.1-3c-0.1-1.1,0.3-2.2,1-3
	c0.7-0.7,1.7-1,2.7-1C169.5,13.9,170.1,14,170.7,14.3z M167.7,16c-0.3,0.3-0.5,0.7-0.5,1.1h3.4c0-0.4-0.2-0.9-0.5-1.2
	c-0.3-0.3-0.7-0.4-1.2-0.4C168.5,15.5,168,15.7,167.7,16L167.7,16z"/>
<g id="C9k6FJ.tif">
	<path d="M23.2,23h5.4c0.5,0,1-0.2,1.4-0.6c0.9-1,0.8-2.5-0.2-3.3c-0.2-0.2-0.5-0.4-0.8-0.5c-0.2,0-0.3-0.2-0.3-0.4
		c0-1.3-0.9-2.4-2.2-2.6c-0.6-0.2-1.3-0.1-1.8,0.1c-0.2,0.1-0.5,0-0.6-0.2c-0.3-0.4-0.7-0.7-1.1-0.9c-1.7-0.9-3.8-0.2-4.6,1.5
		c-0.1,0.3-0.2,0.6-0.3,0.9c0,0.3-0.3,0.6-0.7,0.6c-1.2,0.1-2.1,1.1-2.1,2.2c-0.2,1.4,0.7,2.7,2.1,3c0.3,0,0.6,0.1,0.8,0.1L23.2,23
		L23.2,23z M25.9,14.9c-0.2-1.6-1.2-2.9-2.7-3.5c-0.8-0.3-1.7-0.4-2.6-0.2c-1.2,0.3-2.1,1.1-2.7,2.1c-1.1-0.6-2.4-0.5-3.5,0.2
		c-1,0.7-1.6,1.9-1.5,3.1l-0.3,0.1c-1.3,0.3-2.2,1.4-2.1,2.7c0,1.3,0.9,2.4,2.1,2.6c0.8,0.1,1.5,0.1,2.3,0.1c0,0,0,0,0-0.1L15,21.7
		c-0.4-0.7-0.5-1.6-0.2-2.4c0.3-1.1,1.3-2,2.4-2.1c0.2,0,0.4-0.2,0.4-0.4c0.5-2.2,2.6-3.5,4.8-3c0.1,0,0.1,0,0.2,0.1
		c0.8,0.2,1.5,0.7,1.9,1.3L25.9,14.9z"/>
	<path class="st1" d="M23.2,23h-5c-0.3,0-0.6,0-0.8-0.1c-1.4-0.3-2.4-1.6-2.1-3c0.1-1.2,1-2.1,2.1-2.2c0.4-0.1,0.6-0.4,0.6-0.7
		c0.4-1.9,2.2-3.1,4-2.7c0.3,0.1,0.7,0.2,1,0.3c0.4,0.2,0.8,0.5,1.1,0.9c0.1,0.2,0.4,0.3,0.6,0.2c0.6-0.2,1.2-0.3,1.8-0.1
		c1.3,0.3,2.2,1.4,2.2,2.6c0,0.2,0.1,0.4,0.3,0.4c1.2,0.4,1.9,1.7,1.5,3c-0.1,0.3-0.3,0.6-0.5,0.8c-0.4,0.4-0.9,0.6-1.4,0.5L23.2,23
		L23.2,23z M25.9,14.9l-1.4,0.3c-0.5-0.7-1.2-1.1-1.9-1.3c-2.1-0.6-4.3,0.6-4.9,2.7c0,0.1,0,0.1-0.1,0.2c0,0.2-0.2,0.4-0.4,0.4
		c-1.1,0.2-2.1,1-2.4,2.1c-0.2,0.8-0.1,1.7,0.3,2.4l0.1,0.3c0,0,0,0,0,0.1c-0.8,0-1.6,0-2.3-0.1c-1.2-0.3-2.1-1.4-2.1-2.6
		c-0.1-1.3,0.8-2.4,2.1-2.7l0.3,0c-0.1-1.2,0.4-2.4,1.5-3.2c1-0.7,2.4-0.8,3.5-0.2c0.6-1,1.6-1.8,2.7-2.1c0.9-0.2,1.8-0.1,2.6,0.2
		C24.7,11.9,25.8,13.3,25.9,14.9z"/>
</g>
</svg>
